<svg version="1.1" id="Layer_1" xmlns="http://www.w3.org/2000/svg" xmlns:xlink="http://www.w3.org/1999/xlink" x="0px" y="0px"
	 width="100%" viewBox="0 0 460 370" enable-background="new 0 0 460 370" xml:space="preserve">
<path fill="#F6F4E0" opacity="1.000000" stroke="none" 
	d="
M461.000000,216.000000 
	C461.000000,222.687637 461.000000,229.375290 460.589020,236.532928 
	C457.219666,236.802750 455.819885,238.163727 456.001495,241.142715 
	C456.132690,243.294464 456.412292,245.458267 456.289185,247.597336 
	C456.201172,249.126266 455.892914,251.713562 455.103699,251.957916 
	C449.838959,253.588043 451.053894,257.723358 451.011810,261.380402 
	C450.930237,268.468933 446.128479,273.633301 442.864471,279.080658 
	C438.625854,286.154633 428.849792,289.525391 428.723877,299.690247 
	C428.715820,300.340790 427.378693,300.977386 426.655884,301.615906 
	C425.726044,302.437317 424.875122,303.383301 423.842865,304.046112 
	C421.667267,305.443024 419.514160,307.003723 417.128204,307.905853 
	C415.005676,308.708374 412.581635,308.713318 409.915680,309.128693 
	C414.476379,316.653687 414.168274,317.176758 406.458405,318.047241 
	C402.423157,318.502869 398.423889,319.277710 395.360931,319.758789 
	C395.360931,322.309631 395.963867,326.175568 395.261871,326.429138 
	C391.087341,327.937164 390.589691,330.617889 391.929596,334.427643 
	C390.810638,334.651886 390.010742,335.002777 389.251678,334.929688 
	C386.653290,334.679443 383.701385,332.612793 382.059723,336.634552 
	C381.942474,336.921753 380.810333,336.925995 380.175598,336.849731 
	C375.210632,336.253021 371.853973,339.537109 369.436127,342.713593 
	C367.306274,345.511749 365.671051,347.105865 362.032074,347.233826 
	C360.264648,347.295959 358.379242,349.256989 356.888306,350.708679 
	C354.599213,352.937561 352.411530,354.357178 348.032501,352.107758 
	C349.512360,351.326996 350.067627,351.196289 350.365692,350.846436 
	C351.254456,349.803314 352.096741,348.705902 352.783356,347.528381 
	C352.850128,347.413849 351.342072,346.080017 351.191833,346.187561 
	C349.989014,347.048737 348.901276,348.085632 347.860535,349.149200 
	C347.538055,349.478729 347.460815,350.053131 347.285126,350.520660 
	C345.464203,355.366882 344.467957,355.662537 340.126160,353.279266 
	C339.066254,352.697479 336.893158,352.411865 336.276367,353.030853 
	C331.647797,357.675690 328.144501,355.416840 324.616791,350.742523 
	C325.054596,356.378235 321.611176,354.752350 319.123230,354.870026 
	C317.123840,354.964600 314.953583,354.771362 313.176880,355.490601 
	C310.350220,356.634888 307.788086,358.432465 304.814880,360.123901 
	C305.421722,360.975250 306.799042,362.907532 308.176392,364.839813 
	C307.967224,365.448486 307.758057,366.057159 307.548889,366.665833 
	C296.430969,359.824707 285.130310,363.082764 273.858398,364.149902 
	C271.826752,363.554596 269.820953,362.396637 267.807281,361.252472 
	C263.352417,358.721222 261.485809,359.394379 258.438171,363.480347 
	C257.427765,364.835022 255.134125,365.438080 253.304703,365.912354 
	C251.802032,366.301910 250.117966,365.991760 248.065979,365.991760 
	C248.471390,368.165588 248.735703,369.582794 249.000000,371.000000 
	C248.250000,371.000000 247.500000,371.000000 246.331329,370.640564 
	C240.881775,363.250732 235.397736,363.534088 232.000000,371.000000 
	C226.645065,371.000000 221.290146,371.000000 215.464584,370.582520 
	C215.273804,366.814117 212.970520,367.100220 210.730255,366.941376 
	C209.217621,366.834106 206.990799,366.625854 206.400772,365.658905 
	C204.861206,363.135986 204.046204,360.170868 202.702179,356.775604 
	C201.006729,357.274811 199.127106,357.828247 197.401947,358.336182 
	C198.053528,360.756927 198.525970,362.512085 198.722153,363.240967 
	C194.751938,363.693878 191.385025,364.311737 188.006592,364.383026 
	C185.667770,364.432343 183.322540,363.636627 180.962250,363.390045 
	C179.226669,363.208710 177.458435,363.226166 175.711700,363.306427 
	C174.596954,363.357666 173.442474,364.001587 172.397171,363.828400 
	C169.487610,363.346283 166.625732,362.576355 162.707092,361.683685 
	C166.689285,359.659912 170.255600,357.847504 173.951660,355.969147 
	C169.777206,352.408234 165.732758,352.970581 162.786499,358.054749 
	C160.236679,362.454834 157.268616,361.666931 154.227448,359.626099 
	C152.128784,358.217773 150.655701,355.886475 148.857620,354.011169 
	C148.580536,353.722137 148.058716,353.667755 147.287399,353.360260 
	C147.287399,355.004669 147.287399,356.359253 147.287399,358.500641 
	C142.306854,357.634857 137.761612,356.689453 133.169128,356.135986 
	C131.689026,355.957642 129.568665,356.313782 128.633072,357.284760 
	C125.736374,360.291046 124.336197,358.724854 122.399231,356.227539 
	C121.331612,354.851074 119.042786,353.145386 117.726921,353.444763 
	C109.112915,355.404510 101.980042,353.853851 96.722984,346.265564 
	C94.206093,342.632568 91.562096,339.087646 88.811722,335.275604 
	C87.500885,335.868622 85.999176,336.525543 84.516701,337.223328 
	C81.449364,338.667023 80.288902,337.381256 79.985001,334.322205 
	C79.038132,324.791168 78.937134,325.034851 69.923851,322.856354 
	C67.688744,322.316132 65.961365,319.675262 64.403374,317.998840 
	C74.010925,315.354462 83.185555,312.238586 92.676971,316.994812 
	C94.265152,317.790680 96.078018,318.134491 97.677505,318.912445 
	C99.498299,319.798065 101.177643,320.969849 102.953545,321.953918 
	C104.322929,322.712738 106.136238,323.040039 107.076279,324.137939 
	C110.545380,328.189606 114.344963,327.923645 118.615868,325.754028 
	C120.042030,325.029541 121.679695,324.721405 122.823563,324.351410 
	C126.792152,329.542847 132.525848,327.286255 137.097626,328.769623 
	C138.360443,329.179382 139.846527,328.901123 141.230164,328.938568 
	C141.121704,330.010376 141.412766,331.525391 140.819885,332.059875 
	C139.659317,333.106232 138.068756,333.825195 136.537140,334.265472 
	C135.187958,334.653290 133.676514,334.476685 132.236725,334.549316 
	C132.211395,335.190186 132.186066,335.831055 132.160751,336.471924 
	C135.549286,336.740509 138.951996,337.329681 142.322037,337.180481 
	C145.239304,337.051361 148.337143,336.553955 150.949081,335.343262 
	C153.149948,334.323029 154.331573,334.839417 156.514709,335.371063 
	C161.386932,336.557556 165.153137,344.499329 171.751251,337.501068 
	C172.452652,339.707489 172.817841,341.244171 173.421951,342.680328 
	C174.937073,346.282196 178.346527,347.037903 180.250458,343.969269 
	C182.916260,339.672760 187.234558,339.862000 191.155380,339.687500 
	C195.263199,339.504669 197.586716,337.121735 195.735107,333.375275 
	C194.737640,331.356964 192.699905,329.852814 191.445953,328.464722 
	C190.246048,330.540527 188.986969,333.734528 188.377548,333.615051 
	C182.598877,332.482056 187.270676,328.454712 186.543747,324.999237 
	C183.791595,324.999237 181.012894,325.240295 178.306458,324.902527 
	C176.846390,324.720276 175.509949,323.547668 174.117737,322.821869 
	C175.584274,321.882019 176.943207,320.529083 178.545807,320.111633 
	C180.363541,319.638123 182.399475,320.002319 184.686569,320.002319 
	C184.383896,318.268829 184.191238,317.165466 184.374207,316.056396 
	C212.665894,326.759674 240.931473,327.310120 269.458954,318.822937 
	C284.619598,314.312500 298.133453,306.523193 310.990295,297.888000 
	C310.759979,300.518860 313.576263,304.892303 309.301880,304.375488 
	C302.899658,303.601379 303.132721,307.403564 302.665985,311.447418 
	C302.276215,311.117615 301.886444,310.787842 301.496674,310.458038 
	C299.997772,312.305359 298.498901,314.152679 296.642395,316.157013 
	C292.498322,317.219971 288.730804,318.217896 284.919220,319.001587 
	C282.060242,319.589447 281.677185,321.030426 283.232483,323.183258 
	C286.920593,328.288361 292.190887,328.256378 295.885101,323.160889 
	C296.629303,322.134369 297.308319,321.060608 298.002808,320.030304 
	C300.892731,320.742096 303.446381,321.371033 305.999084,322.388245 
	C305.344177,324.177246 304.946381,325.795837 303.980591,326.931305 
	C302.210480,329.012360 304.077728,338.849670 306.699219,339.632416 
	C307.454742,339.858002 308.587341,339.381561 309.344971,338.905457 
	C310.432343,338.222137 311.210510,336.776245 312.338287,336.477478 
	C316.034546,335.498352 316.881134,333.649323 314.219360,330.339172 
	C318.315460,329.991425 321.823730,329.693573 325.635681,329.369965 
	C324.580750,331.117615 323.737793,332.514130 322.894836,333.910645 
	C323.132233,334.260010 323.369629,334.609375 323.607025,334.958740 
	C324.854980,334.606384 326.361725,334.581818 327.301727,333.839478 
	C329.991028,331.715668 332.450287,329.300568 335.375000,327.000000 
	C336.500000,327.000000 337.250000,327.000000 338.374817,327.006714 
	C341.145081,328.389191 343.540558,329.764954 346.330383,331.367188 
	C348.098022,320.754211 356.573029,327.095764 360.910309,324.582611 
	C360.237000,322.614929 359.618500,320.807465 359.237976,318.734619 
	C360.650665,318.312836 361.825317,318.156403 363.247925,318.266022 
	C365.016663,319.054016 366.522919,319.624634 368.062256,320.084564 
	C369.660095,320.561951 371.289948,320.932190 372.905792,321.349304 
	C372.905792,319.744049 372.905792,318.138763 372.905792,315.515076 
	C375.182526,314.727936 378.062134,313.732361 381.585449,312.514221 
	C381.761963,309.614868 383.359985,306.934692 387.981262,308.182709 
	C395.688995,310.264343 403.278412,311.858856 409.650665,304.932068 
	C410.294373,304.232361 411.301270,303.818451 412.202759,303.411774 
	C420.253296,299.780060 424.959442,293.944000 425.116486,284.757904 
	C425.138580,283.463379 426.511108,281.472656 427.700500,281.051025 
	C431.396423,279.741028 432.760864,277.379181 433.113525,273.615601 
	C433.350311,271.088348 434.239502,268.380981 435.615448,266.259186 
	C437.599548,263.199524 440.208038,260.521606 442.711121,257.830597 
	C444.164154,256.268463 446.124207,255.164719 447.509369,253.556152 
	C449.181427,251.614365 451.225311,249.533340 451.784973,247.195786 
	C452.735291,243.226440 453.383118,238.909424 452.840149,234.917801 
	C451.854950,227.675491 459.139435,223.406784 458.732086,216.549988 
	C458.723907,216.412048 460.210693,216.185303 461.000000,216.000000 
M303.423645,354.137512 
	C302.687592,354.762299 301.951569,355.387054 301.215515,356.011841 
	C301.742065,356.386627 302.268646,356.761383 302.795197,357.136169 
	C303.219238,356.180939 303.643280,355.225708 303.423645,354.137512 
z"/>
<path fill="#FCF9E8" opacity="1.000000" stroke="none" 
	d="
M131.000000,1.000000 
	C191.354233,1.000000 251.708450,1.000000 312.586273,1.380702 
	C314.587555,2.507755 316.039337,3.312217 317.549744,3.985106 
	C319.273499,4.753036 321.112427,5.280381 322.787415,6.135339 
	C325.097534,7.314458 327.182709,9.427209 329.579987,9.818660 
	C332.621643,10.315337 334.301666,11.139891 333.987457,14.367873 
	C333.631897,18.020639 335.721802,19.761427 338.901306,19.895193 
	C345.142548,20.157764 348.007294,28.106306 354.885986,26.699770 
	C355.049591,26.666311 355.443848,27.120085 355.521790,27.403921 
	C356.805664,32.078594 360.597046,31.587997 364.261841,32.164837 
	C367.258087,32.636456 370.308044,34.110531 372.808990,35.881760 
	C374.309387,36.944389 374.612396,39.562504 375.787079,41.249218 
	C378.057892,44.509815 381.331512,47.298805 382.757233,50.857136 
	C384.174500,54.394371 385.866638,55.788776 389.498718,56.155659 
	C391.163727,56.323837 393.290924,57.813225 394.120270,59.307465 
	C397.234924,64.918991 400.242096,70.219597 405.514923,74.517097 
	C409.110718,77.447723 411.555054,82.742554 412.738495,87.428757 
	C414.067902,92.693016 413.360474,98.475143 420.718170,99.497322 
	C421.141815,99.556168 421.454590,100.192337 421.895447,100.382950 
	C425.286407,101.848999 424.422974,105.564896 425.831207,107.751343 
	C429.320831,113.169365 431.730164,118.655228 432.253784,125.058571 
	C432.340088,126.114037 433.018646,127.541832 433.868561,128.043396 
	C438.225037,130.614426 437.143768,134.380478 436.466736,138.156754 
	C436.205353,139.614532 436.006775,141.116562 436.049713,142.590561 
	C436.324615,152.034592 436.357330,161.502136 437.118683,170.909424 
	C437.576965,176.572098 435.835907,180.217728 430.000000,182.535370 
	C430.000000,179.108551 430.000366,176.001801 429.999908,172.895035 
	C429.998566,163.616699 429.400696,163.016144 419.953644,162.714905 
	C417.690674,160.365662 415.621063,158.297485 413.935425,156.060028 
	C418.410767,155.122940 420.978180,153.663437 423.096252,149.093475 
	C426.112152,142.586502 424.201080,136.414764 424.786102,130.145782 
	C424.833252,129.640823 424.241364,128.800110 423.735657,128.560760 
	C415.163483,124.503471 417.611542,114.242584 412.254120,108.182137 
	C409.760590,105.361374 409.482941,100.681587 407.696991,97.095406 
	C406.733551,95.160751 404.485931,93.910851 403.201996,92.082169 
	C399.222778,86.414703 398.264587,78.614914 391.019257,75.199806 
	C390.064392,74.749733 389.325165,73.015022 389.197449,71.800476 
	C388.880524,68.786980 387.301208,67.767799 384.512115,67.997047 
	C381.353271,68.256699 379.443054,66.824318 378.786255,63.717121 
	C377.264648,56.518799 371.925568,52.653152 366.128876,49.158833 
	C364.753723,48.329876 363.582581,47.145981 362.175568,46.389614 
	C358.681854,44.511536 355.105774,42.786652 351.563477,40.998867 
	C349.755585,40.086422 347.813660,39.365170 346.169556,38.217587 
	C342.428833,35.606548 338.614014,30.256752 335.224884,30.552532 
	C327.032928,31.267467 322.301086,23.997335 314.890900,23.850513 
	C312.181427,23.796827 309.446075,22.791595 306.815033,21.936005 
	C305.385925,21.471270 304.059540,20.526505 302.852570,19.585630 
	C301.457916,18.498436 300.398254,16.939943 298.929718,15.995811 
	C288.678680,9.405334 276.625946,10.923051 265.400452,9.321856 
	C254.867767,7.819487 243.951401,9.080271 233.206711,8.926946 
	C231.147125,8.897554 229.116470,7.871245 227.044144,7.441277 
	C224.520966,6.917764 221.306671,5.346808 219.551651,6.320453 
	C214.290070,9.239435 208.966095,7.938513 203.626465,8.028805 
	C202.318985,8.050914 200.985321,8.293194 199.718201,8.635806 
	C193.537018,10.307104 187.412949,12.206015 181.193512,13.714564 
	C175.664307,15.055697 170.001999,15.844479 164.464371,17.155632 
	C160.643555,18.060297 155.673431,18.329460 153.454254,20.851372 
	C149.531418,25.309372 145.141006,24.829153 140.399399,25.091055 
	C138.979370,25.169489 136.639236,26.038580 136.385971,26.989145 
	C134.606415,33.668095 129.552200,35.272312 123.689110,36.060970 
	C122.492744,36.221893 120.833725,36.765457 120.343643,37.657612 
	C118.697464,40.654327 116.225914,41.011986 113.195480,41.064850 
	C107.790268,41.159134 98.626320,47.218262 98.243858,51.686970 
	C97.773590,57.181679 94.145866,57.979115 90.399460,57.830425 
	C85.884682,57.651237 83.416794,59.420998 82.373535,63.449760 
	C81.452194,67.007767 79.296700,68.132454 75.790939,68.111824 
	C74.219139,68.102577 72.098099,68.864655 71.165878,70.028992 
	C68.329376,73.571754 63.520576,76.154678 64.698975,82.010384 
	C64.840874,82.715538 63.414848,83.804588 62.617210,84.619453 
	C57.107079,90.248672 49.135368,93.944916 48.259506,103.222870 
	C48.169987,104.171173 46.812546,104.949829 46.210907,105.911911 
	C45.391087,107.222893 44.220062,108.593704 44.106956,110.011261 
	C43.839546,113.362579 43.403278,116.174583 39.611980,117.500130 
	C38.740353,117.804878 38.084106,119.973686 38.071266,121.291893 
	C37.954456,133.286957 37.937119,145.284485 38.097347,157.278534 
	C38.114334,158.550140 39.454765,159.804047 40.153767,161.530182 
	C40.009975,170.661148 39.893646,179.328094 39.471272,188.059494 
	C39.369030,189.084244 39.572838,190.044510 39.857674,191.427246 
	C39.882679,193.565475 39.826649,195.281265 39.418251,196.985153 
	C35.620461,194.892929 32.175037,192.812622 27.893703,190.227600 
	C28.129683,194.419556 28.334614,198.059952 28.585680,202.519882 
	C30.458567,201.495422 30.981115,201.086166 31.572882,200.911652 
	C32.792305,200.552078 34.048695,200.317871 35.289879,200.032074 
	C34.734310,201.219894 34.487629,203.042679 33.571110,203.488541 
	C28.950819,205.736191 31.359837,209.459930 31.455469,212.612137 
	C31.493181,213.855164 32.893639,215.133072 32.756409,216.285919 
	C32.584045,217.733917 31.470186,219.069839 30.762629,220.454102 
	C29.607719,219.763702 28.048496,219.339203 27.382811,218.327042 
	C26.034586,216.277084 24.347527,213.942688 24.253479,211.665527 
	C23.900986,203.130676 22.039379,194.689957 21.484413,186.376175 
	C20.045839,164.825211 20.977242,143.114304 21.060806,121.467613 
	C21.066031,120.114296 21.526499,118.017082 22.440912,117.538803 
	C27.002026,115.153183 27.474577,111.247849 26.976870,106.908333 
	C26.432621,102.163033 27.966753,99.675484 33.199623,99.836555 
	C34.421585,99.874176 36.745892,98.003876 36.771660,96.966888 
	C36.868927,93.051941 37.256229,89.789375 41.581413,88.168945 
	C42.381577,87.869171 42.448772,85.812576 43.021873,84.649422 
	C43.564373,83.548370 44.244953,82.490814 45.007484,81.527016 
	C48.100639,77.617424 53.920219,75.896194 54.337414,69.787529 
	C54.379768,69.167419 55.539780,68.696198 55.937687,68.013908 
	C57.028584,66.143356 58.658085,64.264175 58.858570,62.266403 
	C59.238880,58.476727 60.936363,57.262100 64.550621,56.831497 
	C66.592415,56.588238 68.490921,54.735992 70.351082,53.458660 
	C74.276009,50.763500 75.929214,44.810757 82.474472,45.774666 
	C85.272507,46.186722 86.239799,43.664635 86.014191,40.942066 
	C85.663437,36.709400 88.058968,35.939156 91.818001,34.706902 
	C97.282288,32.915646 102.143539,29.211815 107.125206,26.104355 
	C107.827324,25.666393 107.694611,23.968304 108.060890,22.891790 
	C108.428787,21.810503 108.997849,19.838884 109.375282,19.863205 
	C115.185234,20.237583 118.283142,13.935883 122.596634,13.535668 
	C129.177444,12.925088 130.518951,10.385285 130.101303,4.853274 
	C130.006577,3.598617 130.680099,2.285960 131.000000,1.000000 
z"/>
<path fill="#FAF7E6" opacity="1.000000" stroke="none" 
	d="
M420.147003,162.995956 
	C429.400696,163.016144 429.998566,163.616699 429.999908,172.895035 
	C430.000366,176.001801 430.000000,179.108551 430.000000,182.535370 
	C435.835907,180.217728 437.576965,176.572098 437.118683,170.909424 
	C436.357330,161.502136 436.324615,152.034592 436.049713,142.590561 
	C436.006775,141.116562 436.205353,139.614532 436.466736,138.156754 
	C437.143768,134.380478 438.225037,130.614426 433.868561,128.043396 
	C433.018646,127.541832 432.340088,126.114037 432.253784,125.058571 
	C431.730164,118.655228 429.320831,113.169365 425.831207,107.751343 
	C424.422974,105.564896 425.286407,101.848999 421.895447,100.382950 
	C421.454590,100.192337 421.141815,99.556168 420.718170,99.497322 
	C413.360474,98.475143 414.067902,92.693016 412.738495,87.428757 
	C411.555054,82.742554 409.110718,77.447723 405.514923,74.517097 
	C400.242096,70.219597 397.234924,64.918991 394.120270,59.307465 
	C393.290924,57.813225 391.163727,56.323837 389.498718,56.155659 
	C385.866638,55.788776 384.174500,54.394371 382.757233,50.857136 
	C381.331512,47.298805 378.057892,44.509815 375.787079,41.249218 
	C374.612396,39.562504 374.309387,36.944389 372.808990,35.881760 
	C370.308044,34.110531 367.258087,32.636456 364.261841,32.164837 
	C360.597046,31.587997 356.805664,32.078594 355.521790,27.403921 
	C355.443848,27.120085 355.049591,26.666311 354.885986,26.699770 
	C348.007294,28.106306 345.142548,20.157764 338.901306,19.895193 
	C335.721802,19.761427 333.631897,18.020639 333.987457,14.367873 
	C334.301666,11.139891 332.621643,10.315337 329.579987,9.818660 
	C327.182709,9.427209 325.097534,7.314458 322.787415,6.135339 
	C321.112427,5.280381 319.273499,4.753036 317.549744,3.985106 
	C316.039337,3.312217 314.587555,2.507755 313.054932,1.380702 
	C324.687561,1.000000 336.375122,1.000000 348.530457,1.398595 
	C348.790894,2.929713 348.733490,4.115850 348.350830,5.185647 
	C346.510590,10.330667 346.797577,10.456919 352.255951,11.117940 
	C355.083801,11.460399 358.523743,12.295057 360.341858,14.194836 
	C363.469116,17.462530 366.446472,19.824177 371.173553,19.337160 
	C371.767029,19.276016 373.024048,20.249104 373.035370,20.763636 
	C373.179657,27.322855 377.110535,28.708170 382.704926,31.339010 
	C389.681213,34.619720 394.904968,42.017464 400.268707,48.174789 
	C403.015106,51.327469 407.865875,53.892376 406.226349,59.623230 
	C406.080353,60.133472 407.394104,61.712936 407.940216,61.669453 
	C413.854858,61.198513 414.364624,66.477516 416.753113,69.728500 
	C417.510193,70.758972 418.224731,71.827606 418.876038,72.927750 
	C421.928070,78.083084 425.879791,82.951248 427.702728,88.514252 
	C429.274689,93.311371 426.924591,98.988174 432.863373,102.815552 
	C436.416382,105.105354 439.296204,108.955078 440.363647,113.711349 
	C441.121857,117.089783 442.903076,120.225044 443.982239,123.548531 
	C445.282166,127.551910 446.256104,131.660126 447.500549,135.682922 
	C448.198639,137.939484 449.830231,140.098679 449.885101,142.330185 
	C450.142853,152.818192 449.913696,163.317123 450.046753,173.809769 
	C450.093414,177.489380 450.103577,180.781555 445.791199,182.264816 
	C444.985748,182.541870 444.071381,184.098587 444.126251,185.009369 
	C444.390686,189.398453 444.687500,193.824219 445.535889,198.125931 
	C446.105316,201.013199 445.781342,202.369568 442.672150,203.140991 
	C441.246063,203.494797 439.226288,205.425369 439.191772,206.687851 
	C439.079834,210.776703 438.017517,213.529861 433.350616,213.433899 
	C433.350616,216.527039 434.480469,220.229462 433.132996,221.782532 
	C429.488922,225.982651 429.763458,230.224915 431.023376,234.829453 
	C432.236511,239.263031 431.967804,242.649933 426.452881,242.658112 
	C425.828369,247.145782 426.295624,251.789246 424.471466,255.211243 
	C420.804993,262.089417 415.913361,268.318512 411.445312,274.758545 
	C411.054993,275.321106 409.794067,275.948029 409.386627,275.724915 
	C405.991516,273.865845 402.859650,271.442566 399.328369,269.943024 
	C396.694977,268.824768 393.590790,268.664093 390.682495,268.585358 
	C390.401611,268.577759 390.023346,272.168365 389.690277,274.088623 
	C390.190552,274.591614 390.690826,275.094604 391.191101,275.597595 
	C388.545807,276.508972 385.768616,277.164246 383.306885,278.432098 
	C381.928497,279.141998 380.736359,280.710480 380.057312,282.169861 
	C378.918640,284.617035 378.256989,287.286133 377.350983,289.992218 
	C375.400848,288.781738 374.052124,287.944580 372.243958,286.822235 
	C370.740265,291.350311 367.988129,293.957184 363.428955,292.598724 
	C358.686676,291.185669 354.016815,290.601837 349.029205,290.598938 
	C345.714630,290.596985 342.401398,288.280548 339.876923,287.305115 
	C340.063354,284.002350 340.341217,281.675995 340.282990,279.358124 
	C340.228302,277.179321 339.867218,275.002289 339.547516,272.838226 
	C339.349487,271.497894 338.977295,270.183319 338.739502,268.508911 
	C338.752930,267.692780 338.710144,267.224915 338.690552,266.736969 
	C338.713684,266.716858 338.738037,266.660583 338.967468,266.733429 
	C339.196930,266.806274 339.678375,266.811157 340.080322,266.856384 
	C342.286102,265.775940 344.481384,264.951721 345.697113,263.373138 
	C346.169189,262.760162 344.428772,260.443237 343.754944,258.574768 
	C344.539520,257.162964 345.265350,256.078857 346.264648,255.110092 
	C347.229248,255.212540 347.920410,255.199677 348.611542,255.186798 
	C348.115265,254.469986 347.618988,253.753174 347.176178,252.651550 
	C348.094666,247.187637 348.959717,242.108536 350.163635,236.979065 
	C351.008728,235.684937 351.314728,234.299820 352.069061,233.231140 
	C353.149536,231.700378 354.557373,230.400711 355.924683,229.460876 
	C356.054474,234.548584 355.958954,239.182831 356.144104,243.805847 
	C356.447083,251.371628 361.909912,256.862305 369.401276,257.147278 
	C372.029266,257.247223 374.673401,256.923889 377.628357,256.785370 
	C378.292938,256.550354 378.639282,256.323792 379.256256,255.887573 
	C381.906219,252.745422 384.285522,249.812897 387.034393,246.870987 
	C391.056000,244.404999 390.823486,242.123550 386.984558,239.542694 
	C386.965393,233.057800 387.056244,227.029968 387.529846,220.984375 
	C391.107910,218.316696 390.887299,216.511993 387.086121,214.604553 
	C387.059540,213.142395 387.129700,212.072830 387.599915,211.003159 
	C389.600983,211.002869 391.201996,211.002701 392.889099,211.382507 
	C393.200562,216.458511 395.692749,220.040680 400.089355,220.675964 
	C407.581970,221.758621 415.063202,221.343369 420.232422,214.119507 
	C421.585571,215.536469 422.502838,216.941620 423.711670,218.019882 
	C424.614410,218.825134 426.025055,219.808685 426.966400,219.602539 
	C427.825378,219.414429 428.551239,217.811478 428.999695,216.696899 
	C430.825104,212.160172 428.982208,208.756805 426.195129,206.825394 
	C426.877197,202.418350 427.800690,198.803253 427.924164,195.161041 
	C428.176910,187.706985 427.798553,180.230927 428.074036,172.778488 
	C428.244690,168.161713 426.752045,165.433212 421.733215,164.913452 
	C421.112762,164.539749 420.710846,164.270508 420.198242,163.761261 
	C420.107361,163.346161 420.127197,163.171066 420.147003,162.995956 
z"/>
<path fill="#F7F5E3" opacity="1.000000" stroke="none" 
	d="
M1.000002,226.000000 
	C1.000000,151.105957 1.000000,76.211922 1.000000,1.000000 
	C29.020094,1.000000 57.041389,1.000000 85.531342,1.421469 
	C85.794739,6.201663 86.462288,11.265773 79.178024,9.534241 
	C78.763885,9.435797 77.041664,11.942271 77.128204,13.150427 
	C77.456467,17.733351 75.573341,19.995781 71.073059,20.512556 
	C68.696541,20.785456 66.629410,21.429140 66.935692,24.791767 
	C67.389610,29.775293 64.792664,32.265358 59.791153,31.975615 
	C57.034443,31.815916 56.209225,32.882259 55.839199,35.652657 
	C55.517990,38.057594 54.274864,40.719036 52.611168,42.488670 
	C48.744247,46.601826 43.443947,49.681095 44.896339,56.706963 
	C45.084621,57.617748 44.081913,58.763863 43.661793,59.813347 
	C42.418877,62.918213 41.368195,66.116196 39.896973,69.107933 
	C38.885208,71.165359 37.102009,74.676353 36.001408,74.551849 
	C30.036022,73.876953 27.602409,78.583130 24.165615,81.519875 
	C19.529633,85.481339 16.689518,90.311760 17.830256,97.006874 
	C18.224604,99.321350 17.437202,102.833115 15.825977,104.292976 
	C12.085741,107.681839 11.972627,111.582703 11.912405,116.005836 
	C11.844068,121.025139 13.904519,126.820435 7.734307,130.252747 
	C7.018899,130.650711 7.031507,132.700821 7.028989,133.985611 
	C6.988523,154.627747 6.973095,175.270111 7.056027,195.912003 
	C7.062189,197.445572 7.737838,199.024155 8.319423,200.496017 
	C9.107498,202.490448 10.671740,204.336716 10.904970,206.361496 
	C11.547969,211.943695 11.550061,217.597122 12.076926,223.196869 
	C12.229620,224.819748 13.175270,226.421997 13.974693,227.917572 
	C15.216703,230.241165 16.670429,232.450562 17.984871,234.736847 
	C18.829296,236.205582 19.429010,237.837631 20.410450,239.200607 
	C23.004396,242.803024 27.557278,246.081528 28.013823,249.886871 
	C28.735394,255.901245 32.140965,258.981537 35.961308,262.399811 
	C36.769405,263.122894 37.326992,264.125946 38.000000,265.453583 
	C38.000000,266.572998 37.988319,267.239105 38.001976,267.904663 
	C38.070084,271.223999 37.798801,273.743286 41.881920,276.232910 
	C45.418453,278.389282 50.505951,280.702057 51.546196,286.488220 
	C51.977337,288.886353 54.866486,292.442780 56.892273,292.623718 
	C61.222046,293.010529 63.066292,294.263580 63.578552,298.596558 
	C63.728241,299.862732 66.163956,301.480988 67.733315,301.713593 
	C68.614510,301.844177 70.086281,299.593964 70.877335,298.183838 
	C71.435669,297.188568 71.297554,295.802612 71.661972,293.247711 
	C72.939659,296.241669 73.365776,298.220490 74.498581,299.632324 
	C75.754509,301.197632 77.656021,302.244965 79.276428,303.517853 
	C79.083786,304.026276 78.891144,304.534698 78.698502,305.043121 
	C76.394875,305.624939 74.109901,306.582611 71.783134,306.698120 
	C68.518616,306.860107 65.223015,306.395844 61.940712,306.199463 
	C61.805466,306.769104 61.670216,307.338745 61.534969,307.908417 
	C60.689121,306.937164 59.857342,305.953217 58.994602,304.997223 
	C56.921825,302.700348 55.221512,299.347504 52.648609,298.416199 
	C49.852623,297.404144 47.416260,297.205658 46.647972,293.769714 
	C46.453014,292.897858 44.956009,291.646576 44.119125,291.692627 
	C35.862995,292.147217 36.170746,283.626678 32.766121,279.662842 
	C29.491169,275.849976 26.524921,271.435455 22.708731,267.807159 
	C17.966194,263.298065 12.563315,259.060089 15.349856,251.110764 
	C15.693380,250.130753 15.121079,247.906250 14.435368,247.639145 
	C10.063964,245.936386 8.374951,242.898285 8.784444,238.368591 
	C8.825720,237.912018 7.920278,237.433502 7.636495,236.872864 
	C6.386809,234.404022 5.320233,231.834885 3.950177,229.437622 
	C3.214422,228.150223 1.998988,227.136963 1.000002,226.000000 
z"/>
<path fill="#F9F7E5" opacity="1.000000" stroke="none" 
	d="
M38.000000,265.000000 
	C37.326992,264.125946 36.769405,263.122894 35.961308,262.399811 
	C32.140965,258.981537 28.735394,255.901245 28.013823,249.886871 
	C27.557278,246.081528 23.004396,242.803024 20.410450,239.200607 
	C19.429010,237.837631 18.829296,236.205582 17.984871,234.736847 
	C16.670429,232.450562 15.216703,230.241165 13.974693,227.917572 
	C13.175270,226.421997 12.229620,224.819748 12.076926,223.196869 
	C11.550061,217.597122 11.547969,211.943695 10.904970,206.361496 
	C10.671740,204.336716 9.107498,202.490448 8.319423,200.496017 
	C7.737838,199.024155 7.062189,197.445572 7.056027,195.912003 
	C6.973095,175.270111 6.988523,154.627747 7.028989,133.985611 
	C7.031507,132.700821 7.018899,130.650711 7.734307,130.252747 
	C13.904519,126.820435 11.844068,121.025139 11.912405,116.005836 
	C11.972627,111.582703 12.085741,107.681839 15.825977,104.292976 
	C17.437202,102.833115 18.224604,99.321350 17.830256,97.006874 
	C16.689518,90.311760 19.529633,85.481339 24.165615,81.519875 
	C27.602409,78.583130 30.036022,73.876953 36.001408,74.551849 
	C37.102009,74.676353 38.885208,71.165359 39.896973,69.107933 
	C41.368195,66.116196 42.418877,62.918213 43.661793,59.813347 
	C44.081913,58.763863 45.084621,57.617748 44.896339,56.706963 
	C43.443947,49.681095 48.744247,46.601826 52.611168,42.488670 
	C54.274864,40.719036 55.517990,38.057594 55.839199,35.652657 
	C56.209225,32.882259 57.034443,31.815916 59.791153,31.975615 
	C64.792664,32.265358 67.389610,29.775293 66.935692,24.791767 
	C66.629410,21.429140 68.696541,20.785456 71.073059,20.512556 
	C75.573341,19.995781 77.456467,17.733351 77.128204,13.150427 
	C77.041664,11.942271 78.763885,9.435797 79.178024,9.534241 
	C86.462288,11.265773 85.794739,6.201663 86.000000,1.421469 
	C100.687561,1.000000 115.375122,1.000000 130.531342,1.000000 
	C130.680099,2.285960 130.006577,3.598617 130.101303,4.853274 
	C130.518951,10.385285 129.177444,12.925088 122.596634,13.535668 
	C118.283142,13.935883 115.185234,20.237583 109.375282,19.863205 
	C108.997849,19.838884 108.428787,21.810503 108.060890,22.891790 
	C107.694611,23.968304 107.827324,25.666393 107.125206,26.104355 
	C102.143539,29.211815 97.282288,32.915646 91.818001,34.706902 
	C88.058968,35.939156 85.663437,36.709400 86.014191,40.942066 
	C86.239799,43.664635 85.272507,46.186722 82.474472,45.774666 
	C75.929214,44.810757 74.276009,50.763500 70.351082,53.458660 
	C68.490921,54.735992 66.592415,56.588238 64.550621,56.831497 
	C60.936363,57.262100 59.238880,58.476727 58.858570,62.266403 
	C58.658085,64.264175 57.028584,66.143356 55.937687,68.013908 
	C55.539780,68.696198 54.379768,69.167419 54.337414,69.787529 
	C53.920219,75.896194 48.100639,77.617424 45.007484,81.527016 
	C44.244953,82.490814 43.564373,83.548370 43.021873,84.649422 
	C42.448772,85.812576 42.381577,87.869171 41.581413,88.168945 
	C37.256229,89.789375 36.868927,93.051941 36.771660,96.966888 
	C36.745892,98.003876 34.421585,99.874176 33.199623,99.836555 
	C27.966753,99.675484 26.432621,102.163033 26.976870,106.908333 
	C27.474577,111.247849 27.002026,115.153183 22.440912,117.538803 
	C21.526499,118.017082 21.066031,120.114296 21.060806,121.467613 
	C20.977242,143.114304 20.045839,164.825211 21.484413,186.376175 
	C22.039379,194.689957 23.900986,203.130676 24.253479,211.665527 
	C24.347527,213.942688 26.034586,216.277084 27.382811,218.327042 
	C28.048496,219.339203 29.607719,219.763702 30.762629,220.454102 
	C31.470186,219.069839 32.584045,217.733917 32.756409,216.285919 
	C32.893639,215.133072 31.493181,213.855164 31.455469,212.612137 
	C31.359837,209.459930 28.950819,205.736191 33.571110,203.488541 
	C34.487629,203.042679 34.734310,201.219894 35.289879,200.032074 
	C34.048695,200.317871 32.792305,200.552078 31.572882,200.911652 
	C30.981115,201.086166 30.458567,201.495422 28.585680,202.519882 
	C28.334614,198.059952 28.129683,194.419556 27.893703,190.227600 
	C32.175037,192.812622 35.620461,194.892929 39.503326,197.395966 
	C39.887974,199.211563 39.835175,200.604462 39.449612,202.047470 
	C37.961105,203.015518 36.401226,203.709503 35.740547,204.901764 
	C34.639233,206.889236 34.113728,209.195801 33.345772,211.367996 
	C35.567642,211.577148 37.789520,211.786316 40.234253,212.246765 
	C42.639008,214.956146 44.820900,217.414230 46.995201,220.247742 
	C44.578854,222.869461 42.170097,225.115723 39.532829,227.575104 
	C39.656231,228.467361 39.391544,230.265701 40.148724,231.351410 
	C42.699989,235.009659 44.926350,239.744141 48.545021,241.617218 
	C54.577000,244.739487 55.321835,244.855560 51.597347,250.364548 
	C53.888298,251.800385 56.090660,253.418762 58.494770,254.639969 
	C64.227905,257.552246 69.110794,260.746277 71.813156,267.375275 
	C72.813072,269.828094 74.940018,272.103912 74.409119,274.938049 
	C73.852013,277.912018 75.272041,278.364502 77.517502,278.656433 
	C79.394279,278.900421 81.246140,279.336060 83.387482,279.739288 
	C83.439331,279.390625 83.603981,278.283417 83.723534,277.479492 
	C91.599678,279.042023 99.098503,283.482025 106.741875,275.848419 
	C106.090431,279.983765 104.661713,283.473663 110.225189,283.853851 
	C116.348213,284.272247 122.503365,285.046021 128.486877,286.374847 
	C132.155487,287.189575 133.992599,286.841827 134.359650,282.941467 
	C135.447021,283.999084 136.245773,284.936615 136.987762,286.217682 
	C133.225220,293.173157 125.830704,293.610931 121.496925,295.890717 
	C117.911949,294.209808 115.323868,292.117035 112.572708,291.874603 
	C104.942886,291.202179 97.866486,286.173706 89.814011,288.953094 
	C89.250389,289.147644 88.408295,289.023743 87.870331,288.729065 
	C82.113564,285.575775 77.376534,287.062744 72.987442,292.502441 
	C71.523743,289.616425 70.729691,285.619263 68.907570,285.077087 
	C66.659645,284.408203 63.556404,286.613739 61.268150,287.420197 
	C59.294411,285.050812 57.433540,282.816925 55.771770,280.822052 
	C57.461163,279.411133 59.141212,278.008026 60.821266,276.604889 
	C59.073315,275.356140 57.325359,274.107361 55.344418,272.692169 
	C58.108379,267.187988 53.516655,264.282623 50.981125,260.529785 
	C50.278568,263.916412 49.801434,267.033752 48.942535,270.042023 
	C48.448368,271.772888 47.336140,273.327271 46.502121,274.961090 
	C45.020538,273.467407 43.441933,272.056213 42.083633,270.457764 
	C40.615158,268.729645 39.352455,266.826691 38.000000,265.000000 
M46.445431,254.102722 
	C45.807182,254.590515 45.168930,255.078308 44.530678,255.566116 
	C45.345474,255.944595 46.160275,256.323090 46.975079,256.701569 
	C47.021835,255.903183 47.068592,255.104797 46.445431,254.102722 
z"/>
<path fill="#F9F6E3" opacity="1.000000" stroke="none" 
	d="
M338.683289,268.857178 
	C338.977295,270.183319 339.349487,271.497894 339.547516,272.838226 
	C339.867218,275.002289 340.228302,277.179321 340.282990,279.358124 
	C340.341217,281.675995 340.063354,284.002350 339.876923,287.305115 
	C342.401398,288.280548 345.714630,290.596985 349.029205,290.598938 
	C354.016815,290.601837 358.686676,291.185669 363.428955,292.598724 
	C367.988129,293.957184 370.740265,291.350311 372.243958,286.822235 
	C374.052124,287.944580 375.400848,288.781738 377.350983,289.992218 
	C378.256989,287.286133 378.918640,284.617035 380.057312,282.169861 
	C380.736359,280.710480 381.928497,279.141998 383.306885,278.432098 
	C385.768616,277.164246 388.545807,276.508972 391.191101,275.597595 
	C390.690826,275.094604 390.190552,274.591614 389.690277,274.088623 
	C390.023346,272.168365 390.401611,268.577759 390.682495,268.585358 
	C393.590790,268.664093 396.694977,268.824768 399.328369,269.943024 
	C402.859650,271.442566 405.991516,273.865845 409.386627,275.724915 
	C409.794067,275.948029 411.054993,275.321106 411.445312,274.758545 
	C415.913361,268.318512 420.804993,262.089417 424.471466,255.211243 
	C426.295624,251.789246 425.828369,247.145782 426.452881,242.658112 
	C431.967804,242.649933 432.236511,239.263031 431.023376,234.829453 
	C429.763458,230.224915 429.488922,225.982651 433.132996,221.782532 
	C434.480469,220.229462 433.350616,216.527039 433.350616,213.433899 
	C438.017517,213.529861 439.079834,210.776703 439.191772,206.687851 
	C439.226288,205.425369 441.246063,203.494797 442.672150,203.140991 
	C445.781342,202.369568 446.105316,201.013199 445.535889,198.125931 
	C444.687500,193.824219 444.390686,189.398453 444.126251,185.009369 
	C444.071381,184.098587 444.985748,182.541870 445.791199,182.264816 
	C450.103577,180.781555 450.093414,177.489380 450.046753,173.809769 
	C449.913696,163.317123 450.142853,152.818192 449.885101,142.330185 
	C449.830231,140.098679 448.198639,137.939484 447.500549,135.682922 
	C446.256104,131.660126 445.282166,127.551910 443.982239,123.548531 
	C442.903076,120.225044 441.121857,117.089783 440.363647,113.711349 
	C439.296204,108.955078 436.416382,105.105354 432.863373,102.815552 
	C426.924591,98.988174 429.274689,93.311371 427.702728,88.514252 
	C425.879791,82.951248 421.928070,78.083084 418.876038,72.927750 
	C418.224731,71.827606 417.510193,70.758972 416.753113,69.728500 
	C414.364624,66.477516 413.854858,61.198513 407.940216,61.669453 
	C407.394104,61.712936 406.080353,60.133472 406.226349,59.623230 
	C407.865875,53.892376 403.015106,51.327469 400.268707,48.174789 
	C394.904968,42.017464 389.681213,34.619720 382.704926,31.339010 
	C377.110535,28.708170 373.179657,27.322855 373.035370,20.763636 
	C373.024048,20.249104 371.767029,19.276016 371.173553,19.337160 
	C366.446472,19.824177 363.469116,17.462530 360.341858,14.194836 
	C358.523743,12.295057 355.083801,11.460399 352.255951,11.117940 
	C346.797577,10.456919 346.510590,10.330667 348.350830,5.185647 
	C348.733490,4.115850 348.790894,2.929713 348.999084,1.398595 
	C354.022095,1.000000 359.044189,1.000000 364.533173,1.403495 
	C364.458893,5.653596 366.740082,7.281791 369.813446,8.953472 
	C372.881165,10.622081 375.399567,13.284623 378.217255,15.434831 
	C379.903870,16.721905 381.602264,18.058298 383.477081,19.017216 
	C385.690735,20.149431 389.355713,19.744337 388.918671,23.571224 
	C388.264282,29.301149 391.424255,30.613773 396.183228,31.161524 
	C397.560852,31.320084 399.584747,33.190449 399.837891,34.550480 
	C401.072540,41.184452 401.674530,41.918217 408.396942,41.995083 
	C410.892395,42.023621 413.414124,42.228561 415.878784,41.951698 
	C420.766266,41.402668 422.587891,43.457214 422.027405,48.219524 
	C421.509521,52.619984 423.040253,55.387680 428.063995,55.020573 
	C430.762238,54.823399 432.039398,56.137760 432.003021,58.883373 
	C431.944672,63.293018 432.909180,67.947357 431.813080,72.064819 
	C429.401733,81.122902 439.360199,85.784424 438.774200,93.958916 
	C438.753784,94.243607 439.609070,94.508400 439.850403,94.907059 
	C442.914886,99.969368 445.995270,105.024010 448.919067,110.167305 
	C449.349762,110.924889 448.997986,112.130325 448.999054,113.128563 
	C449.002411,116.289879 448.871582,119.459030 449.061554,122.608932 
	C449.145782,124.005707 449.469727,126.121353 450.381226,126.608978 
	C454.507690,128.816467 454.121857,132.421875 454.009979,136.087357 
	C453.860687,140.977020 455.470032,144.539505 461.000000,145.000000 
	C461.000000,145.750000 461.000000,146.500000 460.607880,147.633209 
	C455.582397,148.254105 454.174622,151.061722 453.957367,155.290573 
	C453.450958,165.146912 454.330902,174.926285 452.364532,184.907181 
	C450.143219,196.182068 450.764435,208.005295 449.883453,219.569778 
	C449.764069,221.137497 448.229095,222.690765 447.126770,224.073029 
	C443.513641,228.603882 439.175323,232.695847 436.332184,237.654053 
	C434.312531,241.176071 432.799835,246.140839 433.618988,249.904953 
	C435.469879,258.409851 429.028931,262.079346 424.993134,266.748474 
	C418.719879,274.006256 410.231567,279.565674 409.651703,290.697815 
	C404.153412,291.012085 399.585632,292.514343 399.564758,299.205841 
	C397.283203,298.701904 395.788513,297.977356 394.433899,298.181641 
	C393.033600,298.392853 390.700623,299.408234 390.624207,300.241333 
	C390.219482,304.655182 386.878632,305.024628 383.801239,306.265045 
	C379.090424,308.163818 374.466736,310.342224 370.001740,312.762909 
	C367.466553,314.137329 365.321014,316.230530 363.000000,318.000000 
	C361.825317,318.156403 360.650665,318.312836 358.899109,318.789459 
	C357.173523,320.467255 356.024841,321.824829 355.280640,322.704315 
	C349.551117,323.630127 344.244232,324.454987 338.960083,325.406372 
	C338.557495,325.478851 338.316254,326.447784 338.000000,327.000000 
	C337.250000,327.000000 336.500000,327.000000 335.332031,326.641968 
	C332.171051,322.423218 329.712677,322.259735 325.735748,325.425781 
	C324.530853,326.385010 323.020752,327.360168 321.565613,327.511292 
	C319.427856,327.733337 317.213898,327.221527 314.567596,326.979950 
	C314.310486,322.047668 309.435577,323.165588 305.956970,321.630066 
	C305.204437,315.673828 299.946503,317.795410 297.000000,316.000000 
	C298.498901,314.152679 299.997772,312.305359 301.496674,310.458038 
	C301.886444,310.787842 302.276215,311.117615 302.665985,311.447418 
	C303.132721,307.403564 302.899658,303.601379 309.301880,304.375488 
	C313.576263,304.892303 310.759979,300.518860 311.044983,297.875519 
	C311.089752,297.448883 311.192383,297.402893 311.568970,297.644348 
	C317.264557,300.505310 315.681366,296.264313 316.055481,293.532349 
	C318.467712,291.133545 320.771027,289.062927 323.281311,286.856049 
	C323.737701,286.483826 323.891724,286.196686 324.083801,285.558838 
	C328.517029,279.858459 332.816833,274.457642 337.382690,269.059601 
	C337.993622,268.993988 338.338440,268.925568 338.683289,268.857178 
z"/>
<path fill="#F4F2E0" opacity="1.000000" stroke="none" 
	d="
M249.468658,371.000000 
	C248.735703,369.582794 248.471390,368.165588 248.065979,365.991760 
	C250.117966,365.991760 251.802032,366.301910 253.304703,365.912354 
	C255.134125,365.438080 257.427765,364.835022 258.438171,363.480347 
	C261.485809,359.394379 263.352417,358.721222 267.807281,361.252472 
	C269.820953,362.396637 271.826752,363.554596 273.858398,364.149902 
	C285.130310,363.082764 296.430969,359.824707 307.548889,366.665833 
	C307.758057,366.057159 307.967224,365.448486 308.176392,364.839813 
	C306.799042,362.907532 305.421722,360.975250 304.814880,360.123901 
	C307.788086,358.432465 310.350220,356.634888 313.176880,355.490601 
	C314.953583,354.771362 317.123840,354.964600 319.123230,354.870026 
	C321.611176,354.752350 325.054596,356.378235 324.616791,350.742523 
	C328.144501,355.416840 331.647797,357.675690 336.276367,353.030853 
	C336.893158,352.411865 339.066254,352.697479 340.126160,353.279266 
	C344.467957,355.662537 345.464203,355.366882 347.285126,350.520660 
	C347.460815,350.053131 347.538055,349.478729 347.860535,349.149200 
	C348.901276,348.085632 349.989014,347.048737 351.191833,346.187561 
	C351.342072,346.080017 352.850128,347.413849 352.783356,347.528381 
	C352.096741,348.705902 351.254456,349.803314 350.365692,350.846436 
	C350.067627,351.196289 349.512360,351.326996 348.032501,352.107758 
	C352.411530,354.357178 354.599213,352.937561 356.888306,350.708679 
	C358.379242,349.256989 360.264648,347.295959 362.032074,347.233826 
	C365.671051,347.105865 367.306274,345.511749 369.436127,342.713593 
	C371.853973,339.537109 375.210632,336.253021 380.175598,336.849731 
	C380.810333,336.925995 381.942474,336.921753 382.059723,336.634552 
	C383.701385,332.612793 386.653290,334.679443 389.251678,334.929688 
	C390.010742,335.002777 390.810638,334.651886 391.929596,334.427643 
	C390.589691,330.617889 391.087341,327.937164 395.261871,326.429138 
	C395.963867,326.175568 395.360931,322.309631 395.360931,319.758789 
	C398.423889,319.277710 402.423157,318.502869 406.458405,318.047241 
	C414.168274,317.176758 414.476379,316.653687 409.915680,309.128693 
	C412.581635,308.713318 415.005676,308.708374 417.128204,307.905853 
	C419.514160,307.003723 421.667267,305.443024 423.842865,304.046112 
	C424.875122,303.383301 425.726044,302.437317 426.655884,301.615906 
	C427.378693,300.977386 428.715820,300.340790 428.723877,299.690247 
	C428.849792,289.525391 438.625854,286.154633 442.864471,279.080658 
	C446.128479,273.633301 450.930237,268.468933 451.011810,261.380402 
	C451.053894,257.723358 449.838959,253.588043 455.103699,251.957916 
	C455.892914,251.713562 456.201172,249.126266 456.289185,247.597336 
	C456.412292,245.458267 456.132690,243.294464 456.001495,241.142715 
	C455.819885,238.163727 457.219666,236.802750 460.589020,237.001465 
	C461.000000,264.687561 461.000000,292.375122 460.607361,320.532135 
	C458.218597,322.172852 456.227783,323.353271 454.224640,324.512360 
	C452.768372,325.354980 451.307190,326.833344 449.828156,326.858643 
	C446.719452,326.911865 444.968414,329.541412 442.960114,330.220581 
	C437.510315,332.063660 432.939362,335.001587 428.162476,337.890991 
	C426.243042,339.052002 423.635590,339.075500 421.341278,339.616730 
	C422.387604,341.871613 423.445953,344.121063 424.464111,346.388611 
	C424.583282,346.654083 424.480286,347.019257 424.480286,348.287537 
	C421.686737,348.522034 418.809875,348.599487 415.996429,349.062256 
	C414.355499,349.332123 411.789246,349.855347 411.421478,350.894989 
	C410.273590,354.140015 407.715363,353.328247 405.500885,354.153412 
	C400.543152,356.000732 395.762238,358.448883 391.196899,361.140167 
	C389.950287,361.875092 389.481781,364.288391 389.101440,366.028748 
	C388.754242,367.617340 389.009979,369.337708 389.000000,371.000000 
	C342.645782,371.000000 296.291534,371.000000 249.468658,371.000000 
z"/>
<path fill="#F7F5E3" opacity="1.000000" stroke="none" 
	d="
M461.000000,144.531342 
	C455.470032,144.539505 453.860687,140.977020 454.009979,136.087357 
	C454.121857,132.421875 454.507690,128.816467 450.381226,126.608978 
	C449.469727,126.121353 449.145782,124.005707 449.061554,122.608932 
	C448.871582,119.459030 449.002411,116.289879 448.999054,113.128563 
	C448.997986,112.130325 449.349762,110.924889 448.919067,110.167305 
	C445.995270,105.024010 442.914886,99.969368 439.850403,94.907059 
	C439.609070,94.508400 438.753784,94.243607 438.774200,93.958916 
	C439.360199,85.784424 429.401733,81.122902 431.813080,72.064819 
	C432.909180,67.947357 431.944672,63.293018 432.003021,58.883373 
	C432.039398,56.137760 430.762238,54.823399 428.063995,55.020573 
	C423.040253,55.387680 421.509521,52.619984 422.027405,48.219524 
	C422.587891,43.457214 420.766266,41.402668 415.878784,41.951698 
	C413.414124,42.228561 410.892395,42.023621 408.396942,41.995083 
	C401.674530,41.918217 401.072540,41.184452 399.837891,34.550480 
	C399.584747,33.190449 397.560852,31.320084 396.183228,31.161524 
	C391.424255,30.613773 388.264282,29.301149 388.918671,23.571224 
	C389.355713,19.744337 385.690735,20.149431 383.477081,19.017216 
	C381.602264,18.058298 379.903870,16.721905 378.217255,15.434831 
	C375.399567,13.284623 372.881165,10.622081 369.813446,8.953472 
	C366.740082,7.281791 364.458893,5.653596 365.000031,1.403495 
	C396.941559,1.000000 428.883148,1.000000 461.000000,1.000000 
	C461.000000,48.687416 461.000000,96.375053 461.000000,144.531342 
z"/>
<path fill="#F8F5E3" opacity="1.000000" stroke="none" 
	d="
M38.000000,265.453583 
	C39.352455,266.826691 40.615158,268.729645 42.083633,270.457764 
	C43.441933,272.056213 45.020538,273.467407 46.502121,274.961090 
	C47.336140,273.327271 48.448368,271.772888 48.942535,270.042023 
	C49.801434,267.033752 50.278568,263.916412 50.981125,260.529785 
	C53.516655,264.282623 58.108379,267.187988 55.344418,272.692169 
	C57.325359,274.107361 59.073315,275.356140 60.821266,276.604889 
	C59.141212,278.008026 57.461163,279.411133 55.771770,280.822052 
	C57.433540,282.816925 59.294411,285.050812 61.268150,287.420197 
	C63.556404,286.613739 66.659645,284.408203 68.907570,285.077087 
	C70.729691,285.619263 71.523743,289.616425 72.987442,292.502441 
	C77.376534,287.062744 82.113564,285.575775 87.870331,288.729065 
	C88.408295,289.023743 89.250389,289.147644 89.814011,288.953094 
	C97.866486,286.173706 104.942886,291.202179 112.572708,291.874603 
	C115.323868,292.117035 117.911949,294.209808 121.496925,295.890717 
	C125.830704,293.610931 133.225220,293.173157 137.300491,286.351410 
	C143.010818,290.820709 147.849106,296.313202 153.806686,299.994110 
	C163.485199,305.973969 173.896561,310.767700 183.998581,316.062073 
	C184.191238,317.165466 184.383896,318.268829 184.686569,320.002319 
	C182.399475,320.002319 180.363541,319.638123 178.545807,320.111633 
	C176.943207,320.529083 175.584274,321.882019 174.117737,322.821869 
	C175.509949,323.547668 176.846390,324.720276 178.306458,324.902527 
	C181.012894,325.240295 183.791595,324.999237 186.543747,324.999237 
	C187.270676,328.454712 182.598877,332.482056 188.377548,333.615051 
	C188.986969,333.734528 190.246048,330.540527 191.445953,328.464722 
	C192.699905,329.852814 194.737640,331.356964 195.735107,333.375275 
	C197.586716,337.121735 195.263199,339.504669 191.155380,339.687500 
	C187.234558,339.862000 182.916260,339.672760 180.250458,343.969269 
	C178.346527,347.037903 174.937073,346.282196 173.421951,342.680328 
	C172.817841,341.244171 172.452652,339.707489 171.751251,337.501068 
	C165.153137,344.499329 161.386932,336.557556 156.514709,335.371063 
	C154.331573,334.839417 153.149948,334.323029 150.949081,335.343262 
	C148.337143,336.553955 145.239304,337.051361 142.322037,337.180481 
	C138.951996,337.329681 135.549286,336.740509 132.160751,336.471924 
	C132.186066,335.831055 132.211395,335.190186 132.236725,334.549316 
	C133.676514,334.476685 135.187958,334.653290 136.537140,334.265472 
	C138.068756,333.825195 139.659317,333.106232 140.819885,332.059875 
	C141.412766,331.525391 141.121704,330.010376 141.230164,328.938568 
	C139.846527,328.901123 138.360443,329.179382 137.097626,328.769623 
	C132.525848,327.286255 126.792152,329.542847 122.823563,324.351410 
	C121.679695,324.721405 120.042030,325.029541 118.615868,325.754028 
	C114.344963,327.923645 110.545380,328.189606 107.076279,324.137939 
	C106.136238,323.040039 104.322929,322.712738 102.953545,321.953918 
	C101.177643,320.969849 99.498299,319.798065 97.677505,318.912445 
	C96.078018,318.134491 94.265152,317.790680 92.676971,316.994812 
	C83.185555,312.238586 74.010925,315.354462 64.358612,317.642334 
	C62.838207,316.732025 61.799900,315.809509 60.684673,315.704590 
	C58.815746,315.528748 56.897785,315.874023 55.000381,315.750000 
	C55.000233,315.333344 55.000156,315.166656 55.174591,314.684692 
	C56.849800,313.554016 58.350494,312.738678 59.818573,311.941040 
	C57.986454,306.645752 53.854912,304.438507 48.576614,306.000000 
	C46.571434,305.722900 43.665638,305.604034 43.610737,305.144562 
	C42.982929,299.889984 38.537083,301.451538 35.445732,300.550659 
	C34.507248,296.013794 34.592155,290.567108 28.378819,290.159485 
	C24.370077,289.896515 24.034218,287.797394 23.882881,284.604858 
	C23.795441,282.760254 22.861486,279.665619 21.740055,279.382080 
	C16.707340,278.109711 15.950986,274.875946 15.866908,270.443024 
	C15.820874,268.015991 15.119590,264.253326 13.533380,263.463470 
	C9.257254,261.334167 8.779859,257.748718 7.993728,253.647568 
	C7.325181,252.530487 6.662850,251.765244 5.782440,250.739944 
	C4.042906,249.986588 2.521451,249.493301 0.999998,249.000000 
	C1.000000,241.645752 1.000000,234.291504 1.000002,226.468628 
	C1.998988,227.136963 3.214422,228.150223 3.950177,229.437622 
	C5.320233,231.834885 6.386809,234.404022 7.636495,236.872864 
	C7.920278,237.433502 8.825720,237.912018 8.784444,238.368591 
	C8.374951,242.898285 10.063964,245.936386 14.435368,247.639145 
	C15.121079,247.906250 15.693380,250.130753 15.349856,251.110764 
	C12.563315,259.060089 17.966194,263.298065 22.708731,267.807159 
	C26.524921,271.435455 29.491169,275.849976 32.766121,279.662842 
	C36.170746,283.626678 35.862995,292.147217 44.119125,291.692627 
	C44.956009,291.646576 46.453014,292.897858 46.647972,293.769714 
	C47.416260,297.205658 49.852623,297.404144 52.648609,298.416199 
	C55.221512,299.347504 56.921825,302.700348 58.994602,304.997223 
	C59.857342,305.953217 60.689121,306.937164 61.534969,307.908417 
	C61.670216,307.338745 61.805466,306.769104 61.940712,306.199463 
	C65.223015,306.395844 68.518616,306.860107 71.783134,306.698120 
	C74.109901,306.582611 76.394875,305.624939 78.698502,305.043121 
	C78.891144,304.534698 79.083786,304.026276 79.276428,303.517853 
	C77.656021,302.244965 75.754509,301.197632 74.498581,299.632324 
	C73.365776,298.220490 72.939659,296.241669 71.661972,293.247711 
	C71.297554,295.802612 71.435669,297.188568 70.877335,298.183838 
	C70.086281,299.593964 68.614510,301.844177 67.733315,301.713593 
	C66.163956,301.480988 63.728241,299.862732 63.578552,298.596558 
	C63.066292,294.263580 61.222046,293.010529 56.892273,292.623718 
	C54.866486,292.442780 51.977337,288.886353 51.546196,286.488220 
	C50.505951,280.702057 45.418453,278.389282 41.881920,276.232910 
	C37.798801,273.743286 38.070084,271.223999 38.001976,267.904663 
	C37.988319,267.239105 38.000000,266.572998 38.000000,265.453583 
M82.293922,308.899078 
	C82.481224,309.426208 82.668526,309.953369 82.855827,310.480499 
	C83.127449,310.357605 83.399071,310.234680 83.670692,310.111786 
	C83.353577,309.569122 83.036461,309.026459 82.293922,308.899078 
M175.286957,332.079468 
	C175.773911,332.026215 176.260880,331.972961 176.747833,331.919708 
	C176.635483,331.486237 176.523148,331.052765 176.410812,330.619293 
	C175.994308,330.912415 175.577805,331.205505 175.286957,332.079468 
M148.416382,301.192291 
	C148.794205,301.196716 149.172028,301.201172 149.549866,301.205597 
	C149.551559,301.048828 149.563904,300.755859 149.553375,300.755005 
	C149.177444,300.725555 148.799377,300.723480 148.416382,301.192291 
z"/>
<path fill="#F4F2E0" opacity="1.000000" stroke="none" 
	d="
M7.999944,253.999390 
	C8.779859,257.748718 9.257254,261.334167 13.533380,263.463470 
	C15.119590,264.253326 15.820874,268.015991 15.866908,270.443024 
	C15.950986,274.875946 16.707340,278.109711 21.740055,279.382080 
	C22.861486,279.665619 23.795441,282.760254 23.882881,284.604858 
	C24.034218,287.797394 24.370077,289.896515 28.378819,290.159485 
	C34.592155,290.567108 34.507248,296.013794 35.445732,300.550659 
	C38.537083,301.451538 42.982929,299.889984 43.610737,305.144562 
	C43.665638,305.604034 46.571434,305.722900 48.791702,306.279114 
	C50.333466,308.003723 51.209332,309.467163 52.147385,310.889618 
	C53.065300,312.281494 54.046600,313.631561 55.000076,315.000000 
	C55.000156,315.166656 55.000233,315.333344 55.092678,316.134155 
	C58.123367,317.178833 61.061684,317.589417 64.000305,318.000000 
	C65.961365,319.675262 67.688744,322.316132 69.923851,322.856354 
	C78.937134,325.034851 79.038132,324.791168 79.985001,334.322205 
	C80.288902,337.381256 81.449364,338.667023 84.516701,337.223328 
	C85.999176,336.525543 87.500885,335.868622 88.811722,335.275604 
	C91.562096,339.087646 94.206093,342.632568 96.722984,346.265564 
	C101.980042,353.853851 109.112915,355.404510 117.726921,353.444763 
	C119.042786,353.145386 121.331612,354.851074 122.399231,356.227539 
	C124.336197,358.724854 125.736374,360.291046 128.633072,357.284760 
	C129.568665,356.313782 131.689026,355.957642 133.169128,356.135986 
	C137.761612,356.689453 142.306854,357.634857 147.287399,358.500641 
	C147.287399,356.359253 147.287399,355.004669 147.287399,353.360260 
	C148.058716,353.667755 148.580536,353.722137 148.857620,354.011169 
	C150.655701,355.886475 152.128784,358.217773 154.227448,359.626099 
	C157.268616,361.666931 160.236679,362.454834 162.786499,358.054749 
	C165.732758,352.970581 169.777206,352.408234 173.951660,355.969147 
	C170.255600,357.847504 166.689285,359.659912 162.707092,361.683685 
	C166.625732,362.576355 169.487610,363.346283 172.397171,363.828400 
	C173.442474,364.001587 174.596954,363.357666 175.711700,363.306427 
	C177.458435,363.226166 179.226669,363.208710 180.962250,363.390045 
	C183.322540,363.636627 185.667770,364.432343 188.006592,364.383026 
	C191.385025,364.311737 194.751938,363.693878 198.722153,363.240967 
	C198.525970,362.512085 198.053528,360.756927 197.401947,358.336182 
	C199.127106,357.828247 201.006729,357.274811 202.702179,356.775604 
	C204.046204,360.170868 204.861206,363.135986 206.400772,365.658905 
	C206.990799,366.625854 209.217621,366.834106 210.730255,366.941376 
	C212.970520,367.100220 215.273804,366.814117 214.996979,370.582520 
	C175.645767,371.000000 136.291550,371.000000 96.466438,370.598389 
	C96.135880,367.468475 94.921448,366.585876 92.309105,367.370667 
	C88.168274,368.614685 84.633995,368.616455 83.776680,363.105621 
	C83.675957,362.458130 82.749115,361.432404 82.217278,361.439850 
	C78.343163,361.494141 74.301086,361.138794 70.643661,362.132874 
	C66.124321,363.361176 63.643188,362.142731 62.111626,358.001343 
	C61.773663,357.087494 61.277592,355.503540 60.796673,355.481384 
	C54.445454,355.189240 52.256748,349.802643 48.941353,345.905548 
	C46.438244,342.963226 43.231194,339.988251 42.310226,336.506042 
	C41.356049,332.898254 40.136627,331.831635 36.772049,331.953430 
	C34.107212,332.049866 30.901073,332.066925 31.093584,328.193817 
	C31.286377,324.315002 29.348963,323.802521 26.236486,323.963531 
	C22.495901,324.156982 19.897938,322.406525 20.100550,318.488525 
	C20.336670,313.922516 18.319019,312.886536 14.175582,312.798737 
	C12.448526,312.762177 9.320337,310.559937 9.310174,309.322052 
	C9.259669,303.170593 5.618090,302.647125 1.000000,303.000000 
	C1.000000,285.312439 1.000000,267.624878 0.999998,249.468658 
	C2.521451,249.493301 4.042906,249.986588 5.788565,251.091827 
	C6.675161,252.468979 7.337553,253.234177 7.999944,253.999390 
z"/>
<path fill="#F1F0DE" opacity="1.000000" stroke="none" 
	d="
M1.000000,303.468658 
	C5.618090,302.647125 9.259669,303.170593 9.310174,309.322052 
	C9.320337,310.559937 12.448526,312.762177 14.175582,312.798737 
	C18.319019,312.886536 20.336670,313.922516 20.100550,318.488525 
	C19.897938,322.406525 22.495901,324.156982 26.236486,323.963531 
	C29.348963,323.802521 31.286377,324.315002 31.093584,328.193817 
	C30.901073,332.066925 34.107212,332.049866 36.772049,331.953430 
	C40.136627,331.831635 41.356049,332.898254 42.310226,336.506042 
	C43.231194,339.988251 46.438244,342.963226 48.941353,345.905548 
	C52.256748,349.802643 54.445454,355.189240 60.796673,355.481384 
	C61.277592,355.503540 61.773663,357.087494 62.111626,358.001343 
	C63.643188,362.142731 66.124321,363.361176 70.643661,362.132874 
	C74.301086,361.138794 78.343163,361.494141 82.217278,361.439850 
	C82.749115,361.432404 83.675957,362.458130 83.776680,363.105621 
	C84.633995,368.616455 88.168274,368.614685 92.309105,367.370667 
	C94.921448,366.585876 96.135880,367.468475 95.997780,370.598389 
	C64.418549,371.000000 32.837101,371.000000 1.000000,371.000000 
	C1.000000,348.646423 1.000000,326.291870 1.000000,303.468658 
z"/>
<path fill="#F1EFDD" opacity="1.000000" stroke="none" 
	d="
M389.468658,371.000000 
	C389.009979,369.337708 388.754242,367.617340 389.101440,366.028748 
	C389.481781,364.288391 389.950287,361.875092 391.196899,361.140167 
	C395.762238,358.448883 400.543152,356.000732 405.500885,354.153412 
	C407.715363,353.328247 410.273590,354.140015 411.421478,350.894989 
	C411.789246,349.855347 414.355499,349.332123 415.996429,349.062256 
	C418.809875,348.599487 421.686737,348.522034 424.480286,348.287537 
	C424.480286,347.019257 424.583282,346.654083 424.464111,346.388611 
	C423.445953,344.121063 422.387604,341.871613 421.341278,339.616730 
	C423.635590,339.075500 426.243042,339.052002 428.162476,337.890991 
	C432.939362,335.001587 437.510315,332.063660 442.960114,330.220581 
	C444.968414,329.541412 446.719452,326.911865 449.828156,326.858643 
	C451.307190,326.833344 452.768372,325.354980 454.224640,324.512360 
	C456.227783,323.353271 458.218597,322.172852 460.607361,321.000793 
	C461.000000,337.606689 461.000000,354.213348 461.000000,371.000000 
	C437.312744,371.000000 413.625031,371.000000 389.468658,371.000000 
z"/>
<path fill="#F7F5E3" opacity="1.000000" stroke="none" 
	d="
M363.247925,318.266022 
	C365.321014,316.230530 367.466553,314.137329 370.001740,312.762909 
	C374.466736,310.342224 379.090424,308.163818 383.801239,306.265045 
	C386.878632,305.024628 390.219482,304.655182 390.624207,300.241333 
	C390.700623,299.408234 393.033600,298.392853 394.433899,298.181641 
	C395.788513,297.977356 397.283203,298.701904 399.564758,299.205841 
	C399.585632,292.514343 404.153412,291.012085 409.651703,290.697815 
	C410.231567,279.565674 418.719879,274.006256 424.993134,266.748474 
	C429.028931,262.079346 435.469879,258.409851 433.618988,249.904953 
	C432.799835,246.140839 434.312531,241.176071 436.332184,237.654053 
	C439.175323,232.695847 443.513641,228.603882 447.126770,224.073029 
	C448.229095,222.690765 449.764069,221.137497 449.883453,219.569778 
	C450.764435,208.005295 450.143219,196.182068 452.364532,184.907181 
	C454.330902,174.926285 453.450958,165.146912 453.957367,155.290573 
	C454.174622,151.061722 455.582397,148.254105 460.607880,148.008209 
	C461.000000,170.354233 461.000000,192.708450 461.000000,215.531342 
	C460.210693,216.185303 458.723907,216.412048 458.732086,216.549988 
	C459.139435,223.406784 451.854950,227.675491 452.840149,234.917801 
	C453.383118,238.909424 452.735291,243.226440 451.784973,247.195786 
	C451.225311,249.533340 449.181427,251.614365 447.509369,253.556152 
	C446.124207,255.164719 444.164154,256.268463 442.711121,257.830597 
	C440.208038,260.521606 437.599548,263.199524 435.615448,266.259186 
	C434.239502,268.380981 433.350311,271.088348 433.113525,273.615601 
	C432.760864,277.379181 431.396423,279.741028 427.700500,281.051025 
	C426.511108,281.472656 425.138580,283.463379 425.116486,284.757904 
	C424.959442,293.944000 420.253296,299.780060 412.202759,303.411774 
	C411.301270,303.818451 410.294373,304.232361 409.650665,304.932068 
	C403.278412,311.858856 395.688995,310.264343 387.981262,308.182709 
	C383.359985,306.934692 381.761963,309.614868 381.585449,312.514221 
	C378.062134,313.732361 375.182526,314.727936 372.905792,315.515076 
	C372.905792,318.138763 372.905792,319.744049 372.905792,321.349304 
	C371.289948,320.932190 369.660095,320.561951 368.062256,320.084564 
	C366.522919,319.624634 365.016663,319.054016 363.247925,318.266022 
z"/>
<path fill="#F4F2E0" opacity="1.000000" stroke="none" 
	d="
M232.464645,371.000000 
	C235.397736,363.534088 240.881775,363.250732 245.956329,370.640564 
	C241.643097,371.000000 237.286194,371.000000 232.464645,371.000000 
z"/>
<path fill="#2B3035" opacity="1.000000" stroke="none" 
	d="
M184.374207,316.056396 
	C173.896561,310.767700 163.485199,305.973969 153.806686,299.994110 
	C147.849106,296.313202 143.010818,290.820709 137.357239,286.007904 
	C136.245773,284.936615 135.447021,283.999084 134.336548,282.597290 
	C127.478317,272.757324 120.569702,263.605286 114.569794,253.891953 
	C112.280701,250.186172 111.166290,245.212326 111.076218,240.784622 
	C110.687111,221.657715 110.892700,202.519012 110.848724,183.384689 
	C110.813942,168.251862 110.730843,153.119125 110.764893,137.537521 
	C110.102501,130.550430 111.704369,124.690254 115.520950,119.290428 
	C118.972206,114.407463 121.910141,109.157471 125.425301,104.324509 
	C166.613510,47.695305 244.085602,33.560642 302.663391,72.003838 
	C312.118988,78.209320 320.770660,85.401726 327.797119,94.510490 
	C326.055481,96.393097 324.488312,98.087067 322.597412,99.888870 
	C313.577362,109.025139 304.881073,118.053558 295.865845,127.194107 
	C294.016296,126.464607 292.208527,125.909546 290.997314,124.737823 
	C275.886719,110.120071 258.183441,101.040131 237.023666,99.453102 
	C221.758743,98.308189 207.307266,101.164230 193.711090,109.034561 
	C192.948257,109.389404 192.477661,109.722466 191.658157,110.070175 
	C188.044479,112.462257 184.779678,114.839691 181.427612,117.269485 
	C181.340332,117.321846 181.200974,117.470261 180.906342,117.584641 
	C178.603455,119.428650 176.499847,121.060204 174.603180,122.904572 
	C165.571533,131.687103 158.491867,141.719223 154.794952,154.249695 
	C154.394867,155.328125 154.220856,156.168854 153.831085,157.289124 
	C153.412689,158.712875 153.210052,159.857101 152.828964,161.323090 
	C152.417191,163.091919 152.183868,164.538971 151.754364,166.196808 
	C152.042007,166.897217 152.525833,167.386856 153.471542,167.957474 
	C196.342865,168.103271 238.752304,168.215149 281.161743,168.213470 
	C303.107544,168.212601 325.053345,168.010391 347.427307,168.013824 
	C348.379333,169.665329 349.294830,171.185913 349.359222,172.741699 
	C349.637878,179.475204 349.667786,186.218994 349.636414,193.407745 
	C349.598053,208.247437 349.711426,222.638428 349.824768,237.029434 
	C348.959717,242.108536 348.094666,247.187637 346.934448,252.827560 
	C346.423218,253.923843 346.207214,254.459320 345.991180,254.994781 
	C345.265350,256.078857 344.539520,257.162964 343.492859,258.756073 
	C342.060028,261.110870 340.947998,262.956665 339.568298,264.926025 
	C339.113098,265.586578 338.925568,266.123596 338.738037,266.660583 
	C338.738037,266.660583 338.713684,266.716858 338.415588,266.852173 
	C337.783905,267.677246 337.450256,268.367035 337.116638,269.056793 
	C332.816833,274.457642 328.517029,279.858459 323.802856,285.625519 
	C323.283752,286.325256 323.179047,286.658783 323.074341,286.992310 
	C320.771027,289.062927 318.467712,291.133545 315.745300,293.658020 
	C313.948273,295.208893 312.570343,296.305908 311.192383,297.402893 
	C311.192383,297.402893 311.089752,297.448883 311.035065,297.461365 
	C298.133453,306.523193 284.619598,314.312500 269.458954,318.822937 
	C240.931473,327.310120 212.665894,326.759674 184.374207,316.056396 
M200.473022,269.091064 
	C241.609039,286.129852 284.688293,264.855103 299.439972,236.115494 
	C274.119781,236.115494 249.052902,236.115494 223.402664,236.115494 
	C223.402664,225.211090 223.402664,214.793808 223.402664,204.234955 
	C198.916992,204.234955 175.025162,204.234955 150.565369,204.234955 
	C156.225281,234.385925 172.014099,256.125549 200.473022,269.091064 
z"/>
<path fill="#F7F5E3" opacity="1.000000" stroke="none" 
	d="
M305.999084,322.388245 
	C309.435577,323.165588 314.310486,322.047668 314.567596,326.979950 
	C317.213898,327.221527 319.427856,327.733337 321.565613,327.511292 
	C323.020752,327.360168 324.530853,326.385010 325.735748,325.425781 
	C329.712677,322.259735 332.171051,322.423218 334.957031,326.641968 
	C332.450287,329.300568 329.991028,331.715668 327.301727,333.839478 
	C326.361725,334.581818 324.854980,334.606384 323.607025,334.958740 
	C323.369629,334.609375 323.132233,334.260010 322.894836,333.910645 
	C323.737793,332.514130 324.580750,331.117615 325.635681,329.369965 
	C321.823730,329.693573 318.315460,329.991425 314.219360,330.339172 
	C316.881134,333.649323 316.034546,335.498352 312.338287,336.477478 
	C311.210510,336.776245 310.432343,338.222137 309.344971,338.905457 
	C308.587341,339.381561 307.454742,339.858002 306.699219,339.632416 
	C304.077728,338.849670 302.210480,329.012360 303.980591,326.931305 
	C304.946381,325.795837 305.344177,324.177246 305.999084,322.388245 
z"/>
<path fill="#F7F5E3" opacity="1.000000" stroke="none" 
	d="
M296.642395,316.157013 
	C299.946503,317.795410 305.204437,315.673828 305.956970,321.630066 
	C303.446381,321.371033 300.892731,320.742096 298.002808,320.030304 
	C297.308319,321.060608 296.629303,322.134369 295.885101,323.160889 
	C292.190887,328.256378 286.920593,328.288361 283.232483,323.183258 
	C281.677185,321.030426 282.060242,319.589447 284.919220,319.001587 
	C288.730804,318.217896 292.498322,317.219971 296.642395,316.157013 
z"/>
<path fill="#F7F5E3" opacity="1.000000" stroke="none" 
	d="
M338.374817,327.006714 
	C338.316254,326.447784 338.557495,325.478851 338.960083,325.406372 
	C344.244232,324.454987 349.551117,323.630127 355.280640,322.704315 
	C356.024841,321.824829 357.173523,320.467255 358.661102,319.054840 
	C359.618500,320.807465 360.237000,322.614929 360.910309,324.582611 
	C356.573029,327.095764 348.098022,320.754211 346.330383,331.367188 
	C343.540558,329.764954 341.145081,328.389191 338.374817,327.006714 
z"/>
<path fill="#F4F2E0" opacity="1.000000" stroke="none" 
	d="
M303.745483,354.203979 
	C303.643280,355.225708 303.219238,356.180939 302.795197,357.136169 
	C302.268646,356.761383 301.742065,356.386627 301.215515,356.011841 
	C301.951569,355.387054 302.687592,354.762299 303.745483,354.203979 
z"/>
<path fill="#FDFBEA" opacity="1.000000" stroke="none" 
	d="
M349.788147,192.959045 
	C349.667786,186.218994 349.637878,179.475204 349.359222,172.741699 
	C349.294830,171.185913 348.379333,169.665329 347.407837,167.617737 
	C342.608887,164.477600 337.822662,162.851410 333.808563,159.272430 
	C330.925415,156.701843 326.081085,156.268707 322.058197,155.059982 
	C319.253510,154.217316 316.368011,153.145050 313.501801,153.092514 
	C301.525208,152.872925 289.541504,152.928787 277.562286,153.059631 
	C275.144653,153.086044 272.692261,154.400162 270.331390,154.205414 
	C265.739807,153.826675 260.533661,153.918930 256.837250,151.712921 
	C253.425980,149.677139 247.737564,146.860153 250.819336,140.448624 
	C250.985825,140.102264 250.661331,139.488174 250.500397,139.021118 
	C249.048080,134.806503 250.948059,133.349014 254.978073,132.881561 
	C256.702850,132.681503 258.270447,131.126694 259.909454,130.187454 
	C258.396942,129.119324 256.889618,128.043747 255.370575,126.985001 
	C253.611923,125.759254 250.864990,124.879829 250.312973,123.251427 
	C249.530411,120.942963 248.926483,117.853691 252.890930,116.347977 
	C256.034088,115.154198 255.703140,112.375145 252.811356,110.397049 
	C251.562073,109.542503 250.680145,108.170082 249.521667,107.158508 
	C248.263687,106.060059 246.969788,104.907768 245.485916,104.227554 
	C245.099091,104.050240 243.182968,105.691811 243.290024,106.240044 
	C243.606354,107.859779 244.521820,109.383408 245.321365,110.881401 
	C245.990677,112.135437 246.826675,113.300507 247.588882,114.504974 
	C246.104813,114.992699 244.627045,115.860268 243.135300,115.884979 
	C240.456650,115.929390 239.070099,114.563622 238.921326,111.555389 
	C238.678741,106.649818 236.358475,105.741455 232.108749,108.336243 
	C230.772339,109.152214 229.061523,109.329445 227.634842,110.029007 
	C225.422272,111.113945 222.909332,112.000435 221.235580,113.680313 
	C218.140991,116.786194 214.056259,117.038063 211.764832,113.316536 
	C210.137436,110.673470 208.281937,110.655563 205.879944,111.591118 
	C204.179016,112.253624 202.517685,113.056656 200.768997,113.549812 
	C196.821945,114.662949 194.175476,113.629150 194.003311,109.012772 
	C207.307266,101.164230 221.758743,98.308189 237.023666,99.453102 
	C258.183441,101.040131 275.886719,110.120071 290.997314,124.737823 
	C292.208527,125.909546 294.016296,126.464607 296.206665,127.350769 
	C303.346832,129.787415 307.604492,125.002556 312.035004,122.063667 
	C315.834167,119.543556 319.502991,115.912193 321.527435,111.911102 
	C323.250977,108.504761 322.549713,103.871513 322.921173,99.781036 
	C324.488312,98.087067 326.055481,96.393097 327.797119,94.510490 
	C320.770660,85.401726 312.118988,78.209320 302.663391,72.003838 
	C244.085602,33.560642 166.613510,47.695305 125.425301,104.324509 
	C121.910141,109.157471 118.972206,114.407463 115.520950,119.290428 
	C111.704369,124.690254 110.102501,130.550430 110.426819,137.523056 
	C108.168121,137.303345 106.343201,136.649261 104.411392,135.554901 
	C104.650299,128.701462 103.995331,122.681297 97.643417,119.074066 
	C88.683723,113.985893 77.007607,118.330101 73.214661,128.139420 
	C72.574348,130.022263 72.054092,131.756256 72.040024,133.494324 
	C71.959412,143.454819 71.969009,153.416412 72.014870,163.377335 
	C72.029938,166.649597 71.052567,168.927261 67.233986,168.547485 
	C67.134125,167.276398 67.117409,166.444763 67.111794,165.613083 
	C67.057991,157.639328 65.165581,155.779770 56.974224,155.777542 
	C53.649220,155.776642 50.324181,155.889282 46.943165,155.632507 
	C44.198051,153.663712 44.266411,155.657471 43.982151,157.654938 
	C42.610149,158.966400 41.395687,160.016281 40.181225,161.066162 
	C39.454765,159.804047 38.114334,158.550140 38.097347,157.278534 
	C37.937119,145.284485 37.954456,133.286957 38.071266,121.291893 
	C38.084106,119.973686 38.740353,117.804878 39.611980,117.500130 
	C43.403278,116.174583 43.839546,113.362579 44.106956,110.011261 
	C44.220062,108.593704 45.391087,107.222893 46.210907,105.911911 
	C46.812546,104.949829 48.169987,104.171173 48.259506,103.222870 
	C49.135368,93.944916 57.107079,90.248672 62.617210,84.619453 
	C63.414848,83.804588 64.840874,82.715538 64.698975,82.010384 
	C63.520576,76.154678 68.329376,73.571754 71.165878,70.028992 
	C72.098099,68.864655 74.219139,68.102577 75.790939,68.111824 
	C79.296700,68.132454 81.452194,67.007767 82.373535,63.449760 
	C83.416794,59.420998 85.884682,57.651237 90.399460,57.830425 
	C94.145866,57.979115 97.773590,57.181679 98.243858,51.686970 
	C98.626320,47.218262 107.790268,41.159134 113.195480,41.064850 
	C116.225914,41.011986 118.697464,40.654327 120.343643,37.657612 
	C120.833725,36.765457 122.492744,36.221893 123.689110,36.060970 
	C129.552200,35.272312 134.606415,33.668095 136.385971,26.989145 
	C136.639236,26.038580 138.979370,25.169489 140.399399,25.091055 
	C145.141006,24.829153 149.531418,25.309372 153.454254,20.851372 
	C155.673431,18.329460 160.643555,18.060297 164.464371,17.155632 
	C170.001999,15.844479 175.664307,15.055697 181.193512,13.714564 
	C187.412949,12.206015 193.537018,10.307104 199.718201,8.635806 
	C200.985321,8.293194 202.318985,8.050914 203.626465,8.028805 
	C208.966095,7.938513 214.290070,9.239435 219.551651,6.320453 
	C221.306671,5.346808 224.520966,6.917764 227.044144,7.441277 
	C229.116470,7.871245 231.147125,8.897554 233.206711,8.926946 
	C243.951401,9.080271 254.867767,7.819487 265.400452,9.321856 
	C276.625946,10.923051 288.678680,9.405334 298.929718,15.995811 
	C300.398254,16.939943 301.457916,18.498436 302.852570,19.585630 
	C304.059540,20.526505 305.385925,21.471270 306.815033,21.936005 
	C309.446075,22.791595 312.181427,23.796827 314.890900,23.850513 
	C322.301086,23.997335 327.032928,31.267467 335.224884,30.552532 
	C338.614014,30.256752 342.428833,35.606548 346.169556,38.217587 
	C347.813660,39.365170 349.755585,40.086422 351.563477,40.998867 
	C355.105774,42.786652 358.681854,44.511536 362.175568,46.389614 
	C363.582581,47.145981 364.753723,48.329876 366.128876,49.158833 
	C371.925568,52.653152 377.264648,56.518799 378.786255,63.717121 
	C379.443054,66.824318 381.353271,68.256699 384.512115,67.997047 
	C387.301208,67.767799 388.880524,68.786980 389.197449,71.800476 
	C389.325165,73.015022 390.064392,74.749733 391.019257,75.199806 
	C398.264587,78.614914 399.222778,86.414703 403.201996,92.082169 
	C404.485931,93.910851 406.733551,95.160751 407.696991,97.095406 
	C409.482941,100.681587 409.760590,105.361374 412.254120,108.182137 
	C417.611542,114.242584 415.163483,124.503471 423.735657,128.560760 
	C424.241364,128.800110 424.833252,129.640823 424.786102,130.145782 
	C424.201080,136.414764 426.112152,142.586502 423.096252,149.093475 
	C420.978180,153.663437 418.410767,155.122940 413.499268,156.019012 
	C408.880768,156.053848 405.076843,155.786911 401.285309,155.907898 
	C395.677917,156.086823 393.369446,158.411041 392.410187,163.991104 
	C390.429993,163.658173 388.810944,163.325958 387.091858,162.534988 
	C386.932373,152.267197 386.877258,142.458130 386.812317,132.649139 
	C386.744385,122.385239 381.739532,117.498093 371.348328,117.535049 
	C360.793304,117.572586 356.127899,122.194359 356.079895,132.651306 
	C355.993652,151.432037 355.903839,170.212753 355.490814,189.039856 
	C353.373444,190.377182 351.580780,191.668106 349.788147,192.959045 
z"/>
<path fill="#2D3237" opacity="1.000000" stroke="none" 
	d="
M392.771362,163.991806 
	C393.369446,158.411041 395.677917,156.086823 401.285309,155.907898 
	C405.076843,155.786911 408.880768,156.053848 413.115295,156.188293 
	C415.621063,158.297485 417.690674,160.365662 419.953644,162.714905 
	C420.127197,163.171066 420.107361,163.346161 420.166016,164.105972 
	C420.471405,165.801376 420.698395,166.912033 420.835449,168.482742 
	C420.809509,179.955490 420.873505,190.968201 420.779907,202.342514 
	C420.604797,205.489746 420.587311,208.275375 420.405212,211.400238 
	C420.134308,212.482086 420.028015,213.224731 419.921722,213.967361 
	C415.063202,221.343369 407.581970,221.758621 400.089355,220.675964 
	C395.692749,220.040680 393.200562,216.458511 392.974243,210.920532 
	C392.906036,194.716309 392.838684,179.354065 392.771362,163.991806 
z"/>
<path fill="#2B3035" opacity="1.000000" stroke="none" 
	d="
M40.153767,161.530182 
	C41.395687,160.016281 42.610149,158.966400 44.299072,157.580673 
	C45.515408,156.813324 46.257282,156.381790 46.999161,155.950256 
	C50.324181,155.889282 53.649220,155.776642 56.974224,155.777542 
	C65.165581,155.779770 67.057991,157.639328 67.111794,165.613083 
	C67.117409,166.444763 67.134125,167.276398 67.139313,169.008408 
	C67.119537,183.807495 67.141220,197.706375 67.074402,211.604843 
	C67.049812,216.718353 64.934280,219.396118 59.849304,219.896149 
	C55.608913,220.313095 51.288029,219.911438 47.002792,219.872314 
	C44.820900,217.414230 42.639008,214.956146 40.262428,211.793045 
	C39.972622,208.057800 39.877499,205.027573 39.782379,201.997345 
	C39.835175,200.604462 39.887974,199.211563 39.855694,197.407867 
	C39.826649,195.281265 39.882679,193.565475 39.943329,191.055847 
	C39.891071,189.506348 39.834194,188.750687 39.777317,187.995026 
	C39.893646,179.328094 40.009975,170.661148 40.153767,161.530182 
z"/>
<path fill="#F8F5E3" opacity="1.000000" stroke="none" 
	d="
M39.471272,188.059494 
	C39.834194,188.750687 39.891071,189.506348 39.862297,190.633392 
	C39.572838,190.044510 39.369030,189.084244 39.471272,188.059494 
z"/>
<path fill="#2D3237" opacity="1.000000" stroke="none" 
	d="
M355.815552,188.993484 
	C355.903839,170.212753 355.993652,151.432037 356.079895,132.651306 
	C356.127899,122.194359 360.793304,117.572586 371.348328,117.535049 
	C381.739532,117.498093 386.744385,122.385239 386.812317,132.649139 
	C386.877258,142.458130 386.932373,152.267197 386.986298,162.993622 
	C387.053802,179.608444 387.126831,195.305862 387.199890,211.003281 
	C387.129700,212.072830 387.059540,213.142395 386.981842,215.024323 
	C387.031921,217.558502 387.089539,219.280319 387.147125,221.002136 
	C387.056244,227.029968 386.965393,233.057800 386.871155,239.961151 
	C386.800110,242.851242 386.732483,244.865814 386.664856,246.880371 
	C384.285522,249.812897 381.906219,252.745422 378.931458,255.873962 
	C377.994049,256.311249 377.652100,256.552521 377.310150,256.793823 
	C374.673401,256.923889 372.029266,257.247223 369.401276,257.147278 
	C361.909912,256.862305 356.447083,251.371628 356.144104,243.805847 
	C355.958954,239.182831 356.054474,234.548584 356.024933,229.001434 
	C355.955811,215.053497 355.885681,202.023483 355.815552,188.993484 
z"/>
<path fill="#F9F7E5" opacity="1.000000" stroke="none" 
	d="
M420.232422,214.119507 
	C420.028015,213.224731 420.134308,212.482086 420.732117,211.241882 
	C421.128265,207.823181 421.032898,204.902039 420.937531,201.980911 
	C420.873505,190.968201 420.809509,179.955490 421.101440,168.277664 
	C421.622192,166.747681 421.786957,165.882812 421.951752,165.017944 
	C426.752045,165.433212 428.244690,168.161713 428.074036,172.778488 
	C427.798553,180.230927 428.176910,187.706985 427.924164,195.161041 
	C427.800690,198.803253 426.877197,202.418350 426.195129,206.825394 
	C428.982208,208.756805 430.825104,212.160172 428.999695,216.696899 
	C428.551239,217.811478 427.825378,219.414429 426.966400,219.602539 
	C426.025055,219.808685 424.614410,218.825134 423.711670,218.019882 
	C422.502838,216.941620 421.585571,215.536469 420.232422,214.119507 
z"/>
<path fill="#F9F6E3" opacity="1.000000" stroke="none" 
	d="
M355.490845,189.039856 
	C355.885681,202.023483 355.955811,215.053497 355.925659,228.542938 
	C354.557373,230.400711 353.149536,231.700378 352.069061,233.231140 
	C351.314728,234.299820 351.008728,235.684937 350.163635,236.979065 
	C349.711426,222.638428 349.598053,208.247437 349.636414,193.407730 
	C351.580780,191.668106 353.373444,190.377182 355.490845,189.039856 
z"/>
<path fill="#F9F6E3" opacity="1.000000" stroke="none" 
	d="
M387.599915,211.003159 
	C387.126831,195.305862 387.053802,179.608444 387.086365,163.452393 
	C388.810944,163.325958 390.429993,163.658173 392.410187,163.991104 
	C392.838684,179.354065 392.906036,194.716309 392.888184,210.540543 
	C391.201996,211.002701 389.600983,211.002869 387.599915,211.003159 
z"/>
<path fill="#F9F6E3" opacity="1.000000" stroke="none" 
	d="
M339.835968,264.802460 
	C340.947998,262.956665 342.060028,261.110870 343.434143,259.083801 
	C344.428772,260.443237 346.169189,262.760162 345.697113,263.373138 
	C344.481384,264.951721 342.286102,265.775940 340.165466,266.528107 
	C339.844482,265.703918 339.840240,265.253174 339.835968,264.802460 
z"/>
<path fill="#F9F6E3" opacity="1.000000" stroke="none" 
	d="
M387.529846,220.984375 
	C387.089539,219.280319 387.031921,217.558502 387.078552,215.416916 
	C390.887299,216.511993 391.107910,218.316696 387.529846,220.984375 
z"/>
<path fill="#F9F6E3" opacity="1.000000" stroke="none" 
	d="
M387.034393,246.870987 
	C386.732483,244.865814 386.800110,242.851242 386.981140,240.418213 
	C390.823486,242.123550 391.056000,244.404999 387.034393,246.870987 
z"/>
<path fill="#E3E3CF" opacity="1.000000" stroke="none" 
	d="
M421.733215,164.913452 
	C421.786957,165.882812 421.622192,166.747681 421.191376,167.817627 
	C420.698395,166.912033 420.471405,165.801376 420.276703,164.345993 
	C420.710846,164.270508 421.112762,164.539749 421.733215,164.913452 
z"/>
<path fill="#F9F6E3" opacity="1.000000" stroke="none" 
	d="
M346.264648,255.110092 
	C346.207214,254.459320 346.423218,253.923843 346.880981,253.212372 
	C347.618988,253.753174 348.115265,254.469986 348.611542,255.186798 
	C347.920410,255.199677 347.229248,255.212540 346.264648,255.110092 
z"/>
<path fill="#B9BBB0" opacity="1.000000" stroke="none" 
	d="
M337.382690,269.059601 
	C337.450256,268.367035 337.783905,267.677246 338.392456,266.872284 
	C338.710144,267.224915 338.752930,267.692780 338.739502,268.508881 
	C338.338440,268.925568 337.993622,268.993988 337.382690,269.059601 
z"/>
<path fill="#B9BBB0" opacity="1.000000" stroke="none" 
	d="
M339.568298,264.926025 
	C339.840240,265.253174 339.844482,265.703918 339.763550,266.482910 
	C339.678375,266.811157 339.196930,266.806274 338.967468,266.733429 
	C338.925568,266.123596 339.113098,265.586578 339.568298,264.926025 
z"/>
<path fill="#F9F6E3" opacity="1.000000" stroke="none" 
	d="
M377.628357,256.785370 
	C377.652100,256.552521 377.994049,256.311249 378.660828,256.083557 
	C378.639282,256.323792 378.292938,256.550354 377.628357,256.785370 
z"/>
<path fill="#F8F5E3" opacity="1.000000" stroke="none" 
	d="
M46.995201,220.247757 
	C51.288029,219.911438 55.608913,220.313095 59.849304,219.896149 
	C64.934280,219.396118 67.049812,216.718353 67.074402,211.604843 
	C67.141220,197.706375 67.119537,183.807495 67.227615,169.447845 
	C71.052567,168.927261 72.029938,166.649597 72.014870,163.377335 
	C71.969009,153.416412 71.959412,143.454819 72.040024,133.494324 
	C72.054092,131.756256 72.574348,130.022263 73.278107,128.604446 
	C73.725189,166.726486 73.719490,204.530548 73.809296,242.334381 
	C73.832268,252.001938 79.464088,257.286377 89.232574,257.196564 
	C98.964981,257.107086 104.073334,252.040176 104.093002,242.386841 
	C104.157463,210.743729 104.195808,179.100571 104.268028,147.457474 
	C104.276749,143.636536 104.431313,139.815933 104.518272,135.995178 
	C106.343201,136.649261 108.168121,137.303345 110.331131,137.971893 
	C110.730843,153.119125 110.813942,168.251862 110.848724,183.384689 
	C110.892700,202.519012 110.687111,221.657715 111.076218,240.784622 
	C111.166290,245.212326 112.280701,250.186172 114.569794,253.891953 
	C120.569702,263.605286 127.478317,272.757324 134.047897,282.477234 
	C133.992599,286.841827 132.155487,287.189575 128.486877,286.374847 
	C122.503365,285.046021 116.348213,284.272247 110.225189,283.853851 
	C104.661713,283.473663 106.090431,279.983765 106.741875,275.848419 
	C99.098503,283.482025 91.599678,279.042023 83.723534,277.479492 
	C83.603981,278.283417 83.439331,279.390625 83.387482,279.739288 
	C81.246140,279.336060 79.394279,278.900421 77.517502,278.656433 
	C75.272041,278.364502 73.852013,277.912018 74.409119,274.938049 
	C74.940018,272.103912 72.813072,269.828094 71.813156,267.375275 
	C69.110794,260.746277 64.227905,257.552246 58.494770,254.639969 
	C56.090660,253.418762 53.888298,251.800385 51.597347,250.364548 
	C55.321835,244.855560 54.577000,244.739487 48.545021,241.617218 
	C44.926350,239.744141 42.699989,235.009659 40.148724,231.351410 
	C39.391544,230.265701 39.656231,228.467361 39.532829,227.575104 
	C42.170097,225.115723 44.578854,222.869461 46.995201,220.247757 
z"/>
<path fill="#F8F5E3" opacity="1.000000" stroke="none" 
	d="
M39.449612,202.047470 
	C39.877499,205.027573 39.972622,208.057800 40.039570,211.541748 
	C37.789520,211.786316 35.567642,211.577148 33.345772,211.367996 
	C34.113728,209.195801 34.639233,206.889236 35.740547,204.901764 
	C36.401226,203.709503 37.961105,203.015518 39.449612,202.047470 
z"/>
<path fill="#F8F5E3" opacity="1.000000" stroke="none" 
	d="
M46.780388,254.204559 
	C47.068592,255.104797 47.021835,255.903183 46.975075,256.701569 
	C46.160275,256.323090 45.345474,255.944595 44.530678,255.566101 
	C45.168930,255.078308 45.807182,254.590515 46.780388,254.204559 
z"/>
<path fill="#F7F5E3" opacity="1.000000" stroke="none" 
	d="
M311.568970,297.644348 
	C312.570343,296.305908 313.948273,295.208893 315.636414,293.986206 
	C315.681366,296.264313 317.264557,300.505310 311.568970,297.644348 
z"/>
<path fill="#F7F5E3" opacity="1.000000" stroke="none" 
	d="
M323.281311,286.856049 
	C323.179047,286.658783 323.283752,286.325256 323.669403,285.925049 
	C323.891724,286.196686 323.737701,286.483826 323.281311,286.856049 
z"/>
<path fill="#F6F4E0" opacity="1.000000" stroke="none" 
	d="
M55.174591,314.684692 
	C54.046600,313.631561 53.065300,312.281494 52.147385,310.889618 
	C51.209332,309.467163 50.333466,308.003723 49.215286,306.279114 
	C53.854912,304.438507 57.986454,306.645752 59.818573,311.941040 
	C58.350494,312.738678 56.849800,313.554016 55.174591,314.684692 
z"/>
<path fill="#F6F4E0" opacity="1.000000" stroke="none" 
	d="
M63.955547,317.643494 
	C61.061684,317.589417 58.123367,317.178833 55.092751,316.384155 
	C56.897785,315.874023 58.815746,315.528748 60.684673,315.704590 
	C61.799900,315.809509 62.838207,316.732025 63.955547,317.643494 
z"/>
<path fill="#F7F5E3" opacity="1.000000" stroke="none" 
	d="
M82.506638,308.691437 
	C83.036461,309.026459 83.353577,309.569122 83.670692,310.111786 
	C83.399071,310.234680 83.127449,310.357605 82.855827,310.480499 
	C82.668526,309.953369 82.481224,309.426208 82.506638,308.691437 
z"/>
<path fill="#F6F4E0" opacity="1.000000" stroke="none" 
	d="
M175.224121,331.789032 
	C175.577805,331.205505 175.994308,330.912415 176.410812,330.619293 
	C176.523148,331.052765 176.635483,331.486237 176.747833,331.919708 
	C176.260880,331.972961 175.773911,332.026215 175.224121,331.789032 
z"/>
<path fill="#F6F4E0" opacity="1.000000" stroke="none" 
	d="
M7.993729,253.647568 
	C7.337553,253.234177 6.675161,252.468979 6.006644,251.351883 
	C6.662850,251.765244 7.325181,252.530487 7.993729,253.647568 
z"/>
<path fill="#F9F7E5" opacity="1.000000" stroke="none" 
	d="
M148.418991,300.954926 
	C148.799377,300.723480 149.177444,300.725555 149.553375,300.755005 
	C149.563904,300.755859 149.551559,301.048828 149.549866,301.205597 
	C149.172028,301.201172 148.794205,301.196716 148.418991,300.954926 
z"/>
<path fill="#FCFAE9" opacity="1.000000" stroke="none" 
	d="
M200.116669,268.954468 
	C172.014099,256.125549 156.225281,234.385925 150.565369,204.234955 
	C175.025162,204.234955 198.916992,204.234955 223.402664,204.234955 
	C223.402664,214.793808 223.402664,225.211090 223.402664,236.115494 
	C249.052902,236.115494 274.119781,236.115494 299.439972,236.115494 
	C284.688293,264.855103 241.609039,286.129852 200.116669,268.954468 
z"/>
<path fill="#FFFEEE" opacity="1.000000" stroke="none" 
	d="
M193.711090,109.034561 
	C194.175476,113.629150 196.821945,114.662949 200.768997,113.549812 
	C202.517685,113.056656 204.179016,112.253624 205.879944,111.591118 
	C208.281937,110.655563 210.137436,110.673470 211.764832,113.316536 
	C214.056259,117.038063 218.140991,116.786194 221.235580,113.680313 
	C222.909332,112.000435 225.422272,111.113945 227.634842,110.029007 
	C229.061523,109.329445 230.772339,109.152214 232.108749,108.336243 
	C236.358475,105.741455 238.678741,106.649818 238.921326,111.555389 
	C239.070099,114.563622 240.456650,115.929390 243.135300,115.884979 
	C244.627045,115.860268 246.104813,114.992699 247.588882,114.504974 
	C246.826675,113.300507 245.990677,112.135437 245.321365,110.881401 
	C244.521820,109.383408 243.606354,107.859779 243.290024,106.240044 
	C243.182968,105.691811 245.099091,104.050240 245.485916,104.227554 
	C246.969788,104.907768 248.263687,106.060059 249.521667,107.158508 
	C250.680145,108.170082 251.562073,109.542503 252.811356,110.397049 
	C255.703140,112.375145 256.034088,115.154198 252.890930,116.347977 
	C248.926483,117.853691 249.530411,120.942963 250.312973,123.251427 
	C250.864990,124.879829 253.611923,125.759254 255.370575,126.985001 
	C256.889618,128.043747 258.396942,129.119324 259.909454,130.187454 
	C258.270447,131.126694 256.702850,132.681503 254.978073,132.881561 
	C250.948059,133.349014 249.048080,134.806503 250.500397,139.021118 
	C250.661331,139.488174 250.985825,140.102264 250.819336,140.448624 
	C247.737564,146.860153 253.425980,149.677139 256.837250,151.712921 
	C260.533661,153.918930 265.739807,153.826675 270.331390,154.205414 
	C272.692261,154.400162 275.144653,153.086044 277.562286,153.059631 
	C289.541504,152.928787 301.525208,152.872925 313.501801,153.092514 
	C316.368011,153.145050 319.253510,154.217316 322.058197,155.059982 
	C326.081085,156.268707 330.925415,156.701843 333.808563,159.272430 
	C337.822662,162.851410 342.608887,164.477600 346.979675,167.503036 
	C325.053345,168.010391 303.107544,168.212601 281.161743,168.213470 
	C238.752304,168.215149 196.342865,168.103271 153.441559,167.669983 
	C152.616638,166.863037 152.283585,166.424530 151.950531,165.986023 
	C152.183868,164.538971 152.417191,163.091919 153.164703,161.265594 
	C153.801544,159.594086 153.924210,158.301834 154.046875,157.009598 
	C154.220856,156.168854 154.394867,155.328125 155.136261,154.194000 
	C161.144913,146.081543 166.493149,138.195175 172.074020,130.477020 
	C174.256287,127.458984 177.086594,124.915649 179.367767,121.960075 
	C180.319778,120.726631 180.609909,118.982300 181.200974,117.470261 
	C181.200974,117.470261 181.340332,117.321846 181.768921,117.462997 
	C185.467361,115.087944 188.737198,112.571732 192.007050,110.055527 
	C192.477661,109.722466 192.948257,109.389404 193.711090,109.034561 
M201.217392,118.951012 
	C201.001434,121.722572 200.785477,124.494125 200.560760,127.378059 
	C203.432861,128.983795 206.889236,130.351669 208.725189,126.812363 
	C210.005829,124.343597 209.299652,120.844193 209.480972,117.805161 
	C206.858200,117.933220 204.235428,118.061279 201.217392,118.951012 
z"/>
<path fill="#F2F7EC" opacity="1.000000" stroke="none" 
	d="
M322.597412,99.888878 
	C322.549713,103.871513 323.250977,108.504761 321.527435,111.911102 
	C319.502991,115.912193 315.834167,119.543556 312.035004,122.063667 
	C307.604492,125.002556 303.346832,129.787415 296.525665,127.238632 
	C304.881073,118.053558 313.577362,109.025139 322.597412,99.888878 
z"/>
<path fill="#E8F0E4" opacity="1.000000" stroke="none" 
	d="
M180.906342,117.584641 
	C180.609909,118.982300 180.319778,120.726631 179.367767,121.960075 
	C177.086594,124.915649 174.256287,127.458984 172.074020,130.477020 
	C166.493149,138.195175 161.144913,146.081543 155.362335,153.956329 
	C158.491867,141.719223 165.571533,131.687103 174.603180,122.904572 
	C176.499847,121.060204 178.603455,119.428650 180.906342,117.584641 
z"/>
<path fill="#E8F0E4" opacity="1.000000" stroke="none" 
	d="
M191.658157,110.070175 
	C188.737198,112.571732 185.467361,115.087944 181.856201,117.410637 
	C184.779678,114.839691 188.044479,112.462257 191.658157,110.070175 
z"/>
<path fill="#E8F0E4" opacity="1.000000" stroke="none" 
	d="
M153.831100,157.289124 
	C153.924210,158.301834 153.801544,159.594086 153.343140,160.943817 
	C153.210052,159.857101 153.412689,158.712875 153.831100,157.289124 
z"/>
<path fill="#E8F0E4" opacity="1.000000" stroke="none" 
	d="
M151.754364,166.196808 
	C152.283585,166.424530 152.616638,166.863037 152.979675,167.589020 
	C152.525833,167.386856 152.042007,166.897217 151.754364,166.196808 
z"/>
<path fill="#2B3035" opacity="1.000000" stroke="none" 
	d="
M104.411392,135.554901 
	C104.431313,139.815933 104.276749,143.636536 104.268028,147.457474 
	C104.195808,179.100571 104.157463,210.743729 104.093002,242.386841 
	C104.073334,252.040176 98.964981,257.107086 89.232574,257.196564 
	C79.464088,257.286377 73.832268,252.001938 73.809296,242.334381 
	C73.719490,204.530548 73.725189,166.726486 73.631943,128.457474 
	C77.007607,118.330101 88.683723,113.985893 97.643417,119.074066 
	C103.995331,122.681297 104.650299,128.701462 104.411392,135.554901 
z"/>
<path fill="#FCF9E8" opacity="1.000000" stroke="none" 
	d="
M46.943169,155.632507 
	C46.257282,156.381790 45.515408,156.813324 44.456612,157.319107 
	C44.266411,155.657471 44.198051,153.663712 46.943169,155.632507 
z"/>
<path fill="#E3E3CF" opacity="1.000000" stroke="none" 
	d="
M420.779907,202.342514 
	C421.032898,204.902039 421.128265,207.823181 420.896729,210.902649 
	C420.587311,208.275375 420.604797,205.489746 420.779907,202.342514 
z"/>
<path fill="#FDFBEA" opacity="1.000000" stroke="none" 
	d="
M201.415024,118.570175 
	C204.235428,118.061279 206.858200,117.933220 209.480957,117.805161 
	C209.299652,120.844193 210.005829,124.343597 208.725189,126.812363 
	C206.889236,130.351669 203.432861,128.983795 200.560760,127.378059 
	C200.785477,124.494125 201.001434,121.722572 201.415024,118.570175 
z"/>
</svg>